<svg width="138" height="111" viewBox="0 0 138 111" fill="none" xmlns="http://www.w3.org/2000/svg">
<path d="M67.0726 44.2846C66.8641 43.8302 66.8314 43.4711 66.6154 43.2402C60.6072 32.926 53.8181 23.2122 45.013 14.9074C41.0223 11.1491 36.5622 8.04634 31.959 5.20723C30.7762 4.45164 29.5531 3.56045 28.418 2.71696C28.0262 2.3906 27.5943 1.92865 27.3858 1.4742C27.3054 1.20302 27.368 0.668167 27.599 0.452178C27.83 0.236189 28.3648 0.298866 28.6285 0.441945C40.1277 7.1367 50.5047 15.2705 58.3736 26.1392C62.3923 31.733 66.2753 37.367 69.6086 43.3852C69.9452 44.023 70.4977 44.8917 71.0728 45.0899C78.5485 47.6674 84.6085 52.4347 89.9278 57.9378C98.1906 66.4034 106.039 75.2131 114.071 83.8947C114.591 84.4044 115.151 85.0496 116.077 85.4386C114.816 77.6999 113.418 70.0014 112.116 62.1271C113.464 61.9486 114.072 62.5059 114.537 63.327C115.042 64.2836 115.634 65.2879 115.956 66.3726C117.589 72.3786 119.222 78.3846 120.72 84.4309C121.034 85.739 121.077 87.1276 121.032 88.4685C120.854 91.1026 118.981 92.248 116.505 91.3595C111.689 89.5424 107.008 87.6851 102.287 85.6923C100.873 85.1527 100.368 84.196 100.717 83.1338C101.106 82.2072 102.151 81.75 103.612 82.2017C106.136 83.0023 108.564 83.9786 111.352 84.9222C111.055 84.4201 110.975 84.1489 110.759 83.9179C102.448 75.5402 94.1857 67.0746 85.6919 58.825C83.1804 56.3245 80.0714 54.2962 77.2336 52.1874C76.0985 51.3439 74.6847 50.8043 73.1026 49.9459C73.2961 50.8473 73.4971 51.5252 73.6579 52.0676C75.2155 56.326 76.3187 60.7928 76.5681 65.3653C76.7446 69.4432 76.1226 73.3153 74.0316 76.9591C73.276 78.142 72.4727 79.4127 71.4534 80.4524C67.0023 85.0911 60.5063 85.3208 55.4609 80.9902C49.1046 75.7208 44.2662 63.8797 49.9342 53.6438C53.0819 47.8428 58.1913 44.9266 64.7424 44.3855C65.4605 44.3201 66.2666 44.3024 67.0726 44.2846ZM71.5229 75.7116C73.2473 72.324 73.8945 69.0344 73.6955 65.627C73.564 60.2083 72.0363 55.056 70.0542 50.1122C69.6447 48.9798 68.8537 48.5505 67.7438 48.2896C61.8753 47.1532 55.3222 50.4237 52.6841 55.7049C49.1323 62.8795 51.1983 73.3299 57.3312 78.5919C61.4172 82.1743 66.2609 81.8445 69.8836 77.894C70.5363 77.1104 71.1488 76.1913 71.5229 75.7116Z" fill="white"/>
</svg>
