<svg width="20" height="20" viewBox="0 0 20 20" fill="none" xmlns="http://www.w3.org/2000/svg">
<path d="M10 18C8.90267 18 7.868 17.7917 6.896 17.375C5.924 16.9583 5.07333 16.3853 4.344 15.656C3.61467 14.9267 3.04167 14.076 2.625 13.104C2.20833 12.132 2 11.0973 2 10C2 8.88867 2.20833 7.85033 2.625 6.885C3.04167 5.92033 3.61467 5.07333 4.344 4.344C5.07333 3.61467 5.924 3.04167 6.896 2.625C7.868 2.20833 8.90267 2 10 2C10.8747 2 11.708 2.132 12.5 2.396C13.292 2.66 14.0213 3.035 14.688 3.521L13.604 4.604C13.09 4.24267 12.5277 3.96833 11.917 3.781C11.3057 3.59367 10.6667 3.5 10 3.5C8.19467 3.5 6.66 4.132 5.396 5.396C4.132 6.66 3.5 8.19467 3.5 10C3.5 11.8053 4.132 13.34 5.396 14.604C6.66 15.868 8.19467 16.5 10 16.5C10.514 16.5 11.0107 16.4443 11.49 16.333C11.9687 16.2223 12.4233 16.0627 12.854 15.854L13.958 16.958C13.3747 17.2913 12.7497 17.5483 12.083 17.729C11.4163 17.9097 10.722 18 10 18ZM15.5 16.5V14H13V12.5H15.5V10H17V12.5H19.5V14H17V16.5H15.5ZM8.854 13.604L5.5 10.25L6.583 9.167L8.875 11.458L16.938 3.396L18 4.458L8.854 13.604Z" fill="#333333"/>
</svg>
