<svg width="20" height="20" viewBox="0 0 20 20" fill="none" xmlns="http://www.w3.org/2000/svg">
<path d="M4.5 17C4.08333 17 3.72933 16.854 3.438 16.562C3.146 16.2707 3 15.9167 3 15.5V5.625C3 5.43033 3.03833 5.23933 3.115 5.052C3.191 4.86467 3.29867 4.70133 3.438 4.562L4.562 3.438C4.70133 3.29867 4.86467 3.191 5.052 3.115C5.23933 3.03833 5.43033 3 5.625 3H14.375C14.5697 3 14.7607 3.03833 14.948 3.115C15.1353 3.191 15.2987 3.29867 15.438 3.438L16.562 4.562C16.7013 4.70133 16.809 4.86467 16.885 5.052C16.9617 5.23933 17 5.43033 17 5.625V15.5C17 15.9167 16.854 16.2707 16.562 16.562C16.2707 16.854 15.9167 17 15.5 17H4.5ZM4.625 5.5H15.375L14.375 4.5H5.625L4.625 5.5ZM4.5 7V15.5H15.5V7H4.5ZM10 14.25L13 11.25L11.938 10.188L10.75 11.375V8.25H9.25V11.375L8.062 10.188L7 11.25L10 14.25ZM4.5 15.5H15.5H4.5Z" fill="#333333"/>
</svg>
