<svg width="12" height="12" viewBox="0 0 12 12" fill="none" xmlns="http://www.w3.org/2000/svg">
<path fill-rule="evenodd" clip-rule="evenodd" d="M8.925 2.52624V9.5002C8.925 9.73492 8.73472 9.9252 8.5 9.9252C8.26528 9.9252 8.075 9.73492 8.075 9.5002V2.52624L6.80052 3.80072C6.63454 3.96669 6.36545 3.96669 6.19948 3.80072C6.0335 3.63474 6.0335 3.36565 6.19948 3.19968L8.19948 1.19968C8.36545 1.0337 8.63454 1.0337 8.80052 1.19968L10.8005 3.19968C10.9665 3.36565 10.9665 3.63474 10.8005 3.80072C10.6345 3.96669 10.3654 3.96669 10.1995 3.80072L8.925 2.52624ZM3.925 2.5002C3.925 2.26547 3.73472 2.0752 3.5 2.0752C3.26528 2.0752 3.075 2.26547 3.075 2.5002V9.47416L1.80052 8.19968C1.63454 8.0337 1.36545 8.0337 1.19948 8.19968C1.0335 8.36565 1.0335 8.63474 1.19948 8.80072L3.19948 10.8007C3.36545 10.9667 3.63454 10.9667 3.80052 10.8007L5.80052 8.80072C5.96649 8.63474 5.96649 8.36565 5.80052 8.19968C5.63454 8.0337 5.36545 8.0337 5.19948 8.19968L3.925 9.47415V2.5002Z" fill="#7C8DB5"/>
</svg>
