<svg width="24" height="25" viewBox="0 0 24 25" fill="none" xmlns="http://www.w3.org/2000/svg">
<path fill-rule="evenodd" clip-rule="evenodd" d="M15.601 2.89886C15.2691 2.56692 14.7309 2.56692 14.399 2.89886C14.067 3.23081 14.067 3.769 14.399 4.10094L18.9479 8.6499H8C6.44848 8.6499 4.96051 9.26624 3.86343 10.3633C2.76634 11.4604 2.15 12.9484 2.15 14.4999C2.15 16.0514 2.76634 17.5394 3.86343 18.6365C4.96051 19.7336 6.44848 20.3499 8 20.3499H15C15.4694 20.3499 15.85 19.9693 15.85 19.4999C15.85 19.0305 15.4694 18.6499 15 18.6499H8C6.89935 18.6499 5.84378 18.2127 5.06551 17.4344C4.28723 16.6561 3.85 15.6006 3.85 14.4999C3.85 13.3993 4.28723 12.3437 5.06551 11.5654C5.84378 10.7871 6.89935 10.3499 8 10.3499H18.9479L14.399 14.8989C14.067 15.2308 14.067 15.769 14.399 16.1009C14.7309 16.4329 15.2691 16.4329 15.601 16.1009L21.601 10.1009C21.933 9.769 21.933 9.23081 21.601 8.89886L15.601 2.89886Z" fill="#347AE2"/>
</svg>
