<svg width="12" height="12" viewBox="0 0 12 12" fill="none" xmlns="http://www.w3.org/2000/svg">
<path fill-rule="evenodd" clip-rule="evenodd" d="M8.92501 2.52624V9.5002C8.92501 9.73492 8.73473 9.9252 8.50001 9.9252C8.26529 9.9252 8.07501 9.73492 8.07501 9.5002V2.52624L6.80053 3.80072C6.63456 3.96669 6.36546 3.96669 6.19949 3.80072C6.03352 3.63474 6.03352 3.36565 6.19949 3.19968L8.19949 1.19968C8.36546 1.0337 8.63456 1.0337 8.80053 1.19968L10.8005 3.19968C10.9665 3.36565 10.9665 3.63474 10.8005 3.80072C10.6346 3.96669 10.3655 3.96669 10.1995 3.80072L8.92501 2.52624ZM3.92501 2.5002C3.92501 2.26547 3.73473 2.0752 3.50001 2.0752C3.26529 2.0752 3.07501 2.26547 3.07501 2.5002V9.47416L1.80053 8.19968C1.63456 8.0337 1.36546 8.0337 1.19949 8.19968C1.03352 8.36565 1.03352 8.63474 1.19949 8.80072L3.19949 10.8007C3.36546 10.9667 3.63456 10.9667 3.80053 10.8007L5.80053 8.80072C5.96651 8.63474 5.96651 8.36565 5.80053 8.19968C5.63456 8.0337 5.36546 8.0337 5.19949 8.19968L3.92501 9.47415V2.5002Z" fill="#7C8DB5"/>
</svg>
