<svg width="24" height="25" viewBox="0 0 24 25" fill="none" xmlns="http://www.w3.org/2000/svg">
<path fill-rule="evenodd" clip-rule="evenodd" d="M8.89278 6.79011C8.95944 6.32468 9.10167 6.06798 9.30317 5.89527C9.63848 5.60786 10.3629 5.3499 12 5.3499C13.637 5.3499 14.3615 5.60786 14.6968 5.89527C14.8986 6.06826 15.041 6.32549 15.1075 6.79231C14.2013 6.68934 13.1686 6.6499 12 6.6499C10.83 6.6499 9.79774 6.68947 8.89278 6.79011ZM7.15888 7.10308C7.20282 6.17755 7.4267 5.26464 8.19682 4.60453C9.02817 3.89195 10.3037 3.6499 12 3.6499C13.6963 3.6499 14.9718 3.89195 15.8032 4.60453C16.5763 5.2672 16.7989 6.18464 16.8416 7.11385C17.7272 7.36083 18.4776 7.7341 19.0804 8.2976C20.2614 9.40148 20.6878 11.0593 20.8092 13.2388C20.8357 13.3211 20.85 13.4088 20.85 13.4999C20.85 13.6576 20.8469 13.8168 20.8387 13.9765C20.8466 14.2792 20.85 14.591 20.85 14.9117C20.85 17.3465 20.5321 19.3445 19.0663 20.654C17.6393 21.9289 15.3374 22.3499 12 22.3499C10.3152 22.3499 8.91601 22.2679 7.77124 22.0395C6.62221 21.8104 5.67022 21.4226 4.93467 20.7675C3.45525 19.4499 3.14999 17.3221 3.14999 14.4999C3.14999 14.2797 3.15185 14.0638 3.15598 13.8521C3.15173 13.7342 3.14999 13.6166 3.14999 13.4999C3.14999 13.433 3.15773 13.3679 3.17235 13.3054C3.26454 11.072 3.67183 9.35705 4.93467 8.23234C5.53528 7.69742 6.28021 7.34072 7.15888 7.10308ZM4.85699 13.8409C4.91093 11.4191 5.27967 10.2016 6.06532 9.50184C6.49644 9.11787 7.12778 8.82209 8.10375 8.62743C9.08398 8.43192 10.3515 8.3499 12 8.3499C13.6493 8.3499 14.9142 8.43206 15.8914 8.63288C16.8623 8.8324 17.4892 9.13726 17.9196 9.53952C18.6917 10.2613 19.0646 11.5151 19.1368 13.9589C19.1136 14.3252 19.0586 14.6212 18.9613 14.8694C18.837 15.1867 18.6282 15.4657 18.2262 15.7151C17.3434 16.2629 15.5692 16.6499 12.006 16.6499C8.44323 16.6499 6.66523 16.263 5.77895 15.7146C5.37502 15.4647 5.165 15.185 5.03996 14.8678C4.93195 14.5939 4.87551 14.2616 4.85699 13.8409ZM18.9826 17.2429C18.8014 18.2422 18.4647 18.9118 17.9337 19.3862C17.0274 20.1959 15.3293 20.6499 12 20.6499C10.3515 20.6499 9.08398 20.5679 8.10375 20.3724C7.12778 20.1777 6.49644 19.8819 6.06532 19.498C5.5477 19.037 5.21104 18.3512 5.02616 17.2443C6.37571 18.0115 8.56839 18.3499 12.006 18.3499C15.4447 18.3499 17.6357 18.0113 18.9826 17.2429ZM9.14999 14.4999C9.14999 14.0305 9.53055 13.6499 9.99999 13.6499H14C14.4694 13.6499 14.85 14.0305 14.85 14.4999C14.85 14.9693 14.4694 15.3499 14 15.3499L9.99999 15.3499C9.53055 15.3499 9.14999 14.9693 9.14999 14.4999Z" fill="#347AE2"/>
</svg>
