<svg width="20" height="20" viewBox="0 0 20 20" fill="none" xmlns="http://www.w3.org/2000/svg">
<path d="M4.99999 11.667H11.708V9.91699H4.99999V11.667ZM4.99999 9.20799H15V7.45799H4.99999V9.20799ZM4.99999 6.74999H15V4.99999H4.99999V6.74999ZM1.66699 18.333V3.41699C1.66699 2.93099 1.83699 2.51766 2.17699 2.17699C2.51766 1.83699 2.93099 1.66699 3.41699 1.66699H16.583C17.069 1.66699 17.4823 1.83699 17.823 2.17699C18.163 2.51766 18.333 2.93099 18.333 3.41699V13.25C18.333 13.736 18.163 14.1493 17.823 14.49C17.4823 14.83 17.069 15 16.583 15H4.99999L1.66699 18.333ZM3.41699 14.104L4.27099 13.25H16.583V3.41699H3.41699V14.104ZM3.41699 3.41699V14.104V3.41699Z" fill="#202124"/>
</svg>
