<svg width="24" height="25" viewBox="0 0 24 25" fill="none" xmlns="http://www.w3.org/2000/svg">
<path fill-rule="evenodd" clip-rule="evenodd" d="M3.84999 12.4999C3.84999 7.99878 7.49887 4.3499 12 4.3499C12.8909 4.3499 13.7468 4.49254 14.5471 4.75558C14.9931 4.90216 15.4734 4.65946 15.62 4.21349C15.7666 3.76752 15.5239 3.28716 15.0779 3.14058C14.1084 2.82193 13.0735 2.6499 12 2.6499C6.55999 2.6499 2.14999 7.0599 2.14999 12.4999C2.14999 17.9399 6.55999 22.3499 12 22.3499C17.44 22.3499 21.85 17.9399 21.85 12.4999C21.85 12.0305 21.4694 11.6499 21 11.6499C20.5306 11.6499 20.15 12.0305 20.15 12.4999C20.15 17.001 16.5011 20.6499 12 20.6499C7.49887 20.6499 3.84999 17.001 3.84999 12.4999ZM19.6023 8.09964C19.9336 7.76697 19.9324 7.22878 19.5997 6.89756C19.2671 6.56633 18.7289 6.5675 18.3977 6.90017L12.0496 13.2758L9.62092 10.678C9.30033 10.335 8.76245 10.3169 8.41952 10.6375C8.07659 10.9581 8.05848 11.496 8.37907 11.8389L11.4094 15.0804C11.5669 15.2489 11.7862 15.3462 12.0169 15.3498C12.2476 15.3534 12.4699 15.2631 12.6326 15.0996L19.6023 8.09964Z" fill="#347AE2"/>
</svg>
