<svg width="216" height="216" viewBox="0 0 216 216" fill="none" xmlns="http://www.w3.org/2000/svg">
<path d="M93.3414 7.54386C92.8246 4.00256 95.2763 0.692412 98.8422 0.388905C119.204 -1.34412 139.689 2.73348 157.891 12.2144C178.014 22.6955 194.324 39.2475 204.508 59.5218C214.693 79.7962 218.233 102.763 214.628 125.163C211.022 147.563 200.453 168.259 184.422 184.313C168.39 200.368 147.709 210.966 125.314 214.603C102.919 218.24 79.9474 214.732 59.6587 204.577C39.37 194.422 22.7948 178.134 12.2852 158.027C2.77851 139.838 -1.32813 119.359 0.37603 98.9948C0.674482 95.4284 3.98115 92.9721 7.52318 93.4838C11.0652 93.9955 13.4985 97.2821 13.2292 100.851C11.8965 118.515 15.5257 136.248 23.771 152.024C33.0194 169.718 47.6056 184.051 65.4597 192.988C83.3137 201.925 103.529 205.012 123.236 201.811C142.944 198.61 161.143 189.284 175.251 175.156C189.359 161.028 198.659 142.816 201.832 123.103C205.005 103.391 201.889 83.1806 192.927 65.3392C183.965 47.4978 169.612 32.932 151.904 23.7087C136.117 15.4858 118.379 11.8817 100.716 13.2394C97.1482 13.5138 93.8581 11.0852 93.3414 7.54386Z" fill="#E6EDFF"/>
<path d="M34.323 142.172C31.7257 143.377 28.628 142.253 27.5813 139.588C21.6043 124.372 20.0542 107.734 23.1682 91.6135C26.6106 73.7922 35.5782 57.5077 48.7983 45.0707C62.0183 32.6337 78.8195 24.676 96.8176 22.3268C114.816 19.9776 133.096 23.3563 149.066 31.9833C165.035 40.6104 177.882 54.0476 185.784 70.3883C193.685 86.7289 196.24 105.143 193.085 123.017C189.93 140.892 181.226 157.319 168.208 169.967C156.432 181.409 141.668 189.233 125.665 192.575C122.862 193.16 120.224 191.186 119.808 188.353C119.392 185.521 121.356 182.905 124.154 182.296C138.002 179.286 150.77 172.455 160.983 162.531C172.439 151.401 180.098 136.945 182.875 121.215C185.651 105.486 183.403 89.2815 176.45 74.9017C169.496 60.5219 158.191 48.6971 144.138 41.1053C130.085 33.5135 113.998 30.5403 98.1595 32.6076C82.3212 34.6749 67.5361 41.6776 55.9025 52.6222C44.2688 63.5667 36.3773 77.8972 33.348 93.5799C30.6472 107.562 31.9333 121.985 37.0064 135.217C38.0313 137.891 36.9203 140.968 34.323 142.172Z" fill="#E6EDFF"/>
<path d="M51.4806 88.1711C49.4882 87.472 48.4289 85.2847 49.2461 83.3378C53.9124 72.2207 61.6497 62.6291 71.5867 55.7094C82.5718 48.0598 95.687 44.064 109.071 44.289C122.456 44.5141 135.429 48.9486 146.151 56.9633C156.873 64.9779 164.798 76.1656 168.802 88.9389C172.807 101.712 172.686 115.422 168.459 128.123C164.232 140.824 156.112 151.871 145.251 159.697C134.391 167.523 121.342 171.729 107.955 171.72C95.8465 171.712 84.0182 168.254 73.8405 161.79C72.0581 160.658 71.6791 158.258 72.9159 156.546C74.1527 154.835 76.5364 154.462 78.328 155.58C87.1963 161.11 97.4586 164.066 107.961 164.074C119.741 164.082 131.224 160.38 140.781 153.493C150.338 146.607 157.484 136.885 161.204 125.708C164.924 114.531 165.03 102.467 161.506 91.2262C157.982 79.9858 151.008 70.1406 141.573 63.0877C132.138 56.0348 120.721 52.1324 108.943 51.9344C97.1646 51.7363 85.6232 55.2526 75.9563 61.9843C67.3379 67.9858 60.5997 76.2713 56.4759 85.8748C55.6428 87.815 53.4731 88.8701 51.4806 88.1711Z" fill="#E6EDFF"/>
<path d="M209.52 108C213.099 108 216.02 110.904 215.806 114.476C214.593 134.666 207.73 154.158 195.938 170.697C182.889 188.999 164.455 202.774 143.205 210.101C121.955 217.428 98.9488 217.942 77.3928 211.572C55.8368 205.202 36.8054 192.265 22.9517 174.564C9.09803 156.863 1.11235 135.281 0.10789 112.826C-0.896572 90.3711 5.13024 68.1622 17.3482 49.2952C29.5662 30.4283 47.3664 15.8436 68.2675 7.57425C87.1556 0.101358 107.725 -1.87756 127.615 1.79612C131.134 2.44615 133.251 5.97974 132.391 9.45372C131.532 12.9277 128.02 15.0236 124.496 14.4024C107.231 11.3595 89.4148 13.145 73.0354 19.6253C54.6424 26.9024 38.9782 39.7369 28.2264 56.3398C17.4746 72.9427 12.171 92.4866 13.0549 112.247C13.9389 132.008 20.9663 151 33.1575 166.576C45.3488 182.153 62.0963 193.538 81.0656 199.144C100.035 204.749 120.281 204.297 138.98 197.849C157.68 191.401 173.902 179.279 185.385 163.173C195.611 148.831 201.625 131.965 202.819 114.475C203.063 110.905 205.941 108 209.52 108Z" fill="url(#paint0_linear_102_3738)"/>
<path d="M189.216 108C192.079 108 194.416 110.323 194.245 113.181C193.361 127.888 188.728 142.157 180.749 154.611C171.836 168.523 159.12 179.587 144.11 186.492C129.099 193.398 112.424 195.854 96.0598 193.571C79.6959 191.288 64.3297 184.36 51.783 173.61C39.2364 162.859 30.0353 148.736 25.2706 132.916C20.5058 117.095 20.3773 100.24 24.9002 84.3489C29.4231 68.4575 38.4077 54.1962 50.7889 43.2556C61.8726 33.4615 75.2622 26.6963 89.6601 23.569C92.4579 22.9613 95.1119 24.9147 95.5508 27.7439C95.9896 30.5731 94.0463 33.2047 91.2535 33.8352C78.8143 36.6439 67.2519 42.544 57.6543 51.0249C46.7587 60.6526 38.8523 73.2026 34.8721 87.187C30.892 101.171 31.0051 116.004 35.1981 129.926C39.391 143.848 47.488 156.276 58.5291 165.736C69.5702 175.197 83.0924 181.293 97.4927 183.303C111.893 185.312 126.567 183.15 139.776 177.073C152.986 170.997 164.175 161.26 172.019 149.017C178.929 138.233 182.987 125.903 183.855 113.18C184.05 110.324 186.353 108 189.216 108Z" fill="url(#paint1_linear_102_3738)"/>
<path d="M167.897 108C170.008 108 171.732 109.713 171.605 111.821C171.039 121.245 168.384 130.443 163.814 138.741C158.628 148.157 151.144 156.108 142.059 161.854C132.973 167.6 122.582 170.954 111.852 171.604C101.122 172.253 90.4016 170.178 80.6893 165.571C70.9769 160.963 62.5881 153.973 56.3035 145.252C50.019 136.531 46.043 126.361 44.7457 115.69C43.4484 105.019 44.8719 94.1926 48.8838 84.2195C52.4192 75.4308 57.8634 67.5562 64.8042 61.156C66.3565 59.7246 68.7738 59.9757 70.1096 61.611C71.4453 63.2463 71.1922 65.6456 69.6517 67.0896C63.704 72.6649 59.0316 79.4815 55.9778 87.0731C52.4473 95.8495 51.1946 105.376 52.3362 114.767C53.4778 124.158 56.9767 133.107 62.5071 140.782C68.0375 148.457 75.4197 154.608 83.9666 158.662C92.5135 162.717 101.947 164.543 111.39 163.971C120.832 163.399 129.977 160.448 137.972 155.391C145.967 150.335 152.553 143.338 157.117 135.052C161.064 127.884 163.388 119.954 163.943 111.82C164.087 109.714 165.785 108 167.897 108Z" fill="url(#paint2_linear_102_3738)"/>
<defs>
<linearGradient id="paint0_linear_102_3738" x1="118.8" y1="11.34" x2="211.14" y2="105.3" gradientUnits="userSpaceOnUse">
<stop stop-color="#347AE2"/>
<stop offset="1" stop-color="#E6EEFF"/>
</linearGradient>
<linearGradient id="paint1_linear_102_3738" x1="43.2" y1="57.7801" x2="185.22" y2="79.3801" gradientUnits="userSpaceOnUse">
<stop stop-color="#FF9500"/>
<stop offset="0.980922" stop-color="#E6EEFF"/>
</linearGradient>
<linearGradient id="paint2_linear_102_3738" x1="52.38" y1="80.46" x2="169.56" y2="108" gradientUnits="userSpaceOnUse">
<stop offset="0.0240774" stop-color="#34C759"/>
<stop offset="1" stop-color="#E6EEFF"/>
</linearGradient>
</defs>
</svg>
