<svg width="20" height="20" viewBox="0 0 20 20" fill="none" xmlns="http://www.w3.org/2000/svg">
<path d="M12.5001 15.2018C12.6508 15.051 12.7432 14.8415 12.7429 14.6114L12.7429 14.5101C12.7429 14.0493 12.3699 13.6763 11.9097 13.6769L7.35673 13.6769L15.0585 5.9751C15.3838 5.64983 15.3838 5.12186 15.0585 4.79659C14.7332 4.47132 14.2052 4.47132 13.88 4.79659L6.17822 12.4983V7.94542C6.17822 7.48462 5.80519 7.11159 5.34498 7.11218H5.2437C4.7829 7.11218 4.40987 7.48521 4.41046 7.94542V14.6114C4.41046 15.0722 4.78349 15.4452 5.2437 15.4446L11.9097 15.4446C12.1401 15.4446 12.3493 15.3526 12.5001 15.2018Z" fill="#FF3B30"/>
</svg>
