<svg width="20" height="20" viewBox="0 0 20 20" fill="none" xmlns="http://www.w3.org/2000/svg">
<path d="M9.91699 14.25L13.333 10.833L9.91699 7.41701L8.68799 8.64601L9.99999 9.95801H6.66699V11.708H9.99999L8.68799 13.021L9.91699 14.25ZM3.41699 16.667C2.93099 16.667 2.51766 16.4967 2.17699 16.156C1.83699 15.816 1.66699 15.403 1.66699 14.917V5.08301C1.66699 4.59701 1.83699 4.18401 2.17699 3.84401C2.51766 3.50334 2.93099 3.33301 3.41699 3.33301H8.24999L9.99999 5.08301H16.583C17.069 5.08301 17.4823 5.25334 17.823 5.59401C18.163 5.93401 18.333 6.34701 18.333 6.83301V14.917C18.333 15.403 18.163 15.816 17.823 16.156C17.4823 16.4967 17.069 16.667 16.583 16.667H3.41699ZM3.41699 6.83301V14.917H16.583V6.83301H9.27099H7.52099H3.41699Z" fill="#333333"/>
</svg>
