<svg width="131" height="40" viewBox="0 0 131 40" fill="none" xmlns="http://www.w3.org/2000/svg">
<path d="M117 22L113 18H121L117 22Z" fill="#333333"/>
<path d="M99 14H91V19M99 25H91V19M91 19H97.1176" stroke="#333333" stroke-width="2"/>
<path d="M101 25.9998C101 25.9998 101 22.7765 101 20.9999C101 19.2233 105 19.2233 105 20.9999C105 22.7765 105 25.9998 105 25.9998" stroke="#333333" stroke-width="2"/>
<path d="M23 25L18 20L23 15L24.062 16.062L20.125 20L24.062 23.938L23 25Z" fill="#B8B8B8"/>
<path d="M59 25L57.938 23.938L61.875 20L57.938 16.062L59 15L64 20L59 25Z" fill="#B8B8B8"/>
</svg>
