<svg width="20" height="20" viewBox="0 0 20 20" fill="none" xmlns="http://www.w3.org/2000/svg">
<path d="M4.5 17C4.09733 17 3.74667 16.8507 3.448 16.552C3.14933 16.2533 3 15.9027 3 15.5V4.5C3 4.08333 3.14933 3.72933 3.448 3.438C3.74667 3.146 4.09733 3 4.5 3H15.5C15.9167 3 16.2707 3.146 16.562 3.438C16.854 3.72933 17 4.08333 17 4.5V15.5C17 15.9027 16.854 16.2533 16.562 16.552C16.2707 16.8507 15.9167 17 15.5 17H4.5ZM10 13C10.5553 13 11.0277 12.8057 11.417 12.417C11.8057 12.0277 12 11.5553 12 11H15.5V4.5H4.5V11H8C8 11.5553 8.19433 12.0277 8.583 12.417C8.97233 12.8057 9.44467 13 10 13Z" fill="#202124"/>
</svg>
