<svg width="20" height="20" viewBox="0 0 20 20" fill="none" xmlns="http://www.w3.org/2000/svg">
<path d="M17 10L13.458 14.438C13.3053 14.618 13.1283 14.7567 12.927 14.854C12.7257 14.9513 12.507 15 12.271 15H5.5C5.08333 15 4.72933 14.854 4.438 14.562C4.146 14.2707 4 13.9167 4 13.5V6.5C4 6.08333 4.146 5.72933 4.438 5.438C4.72933 5.146 5.08333 5 5.5 5H12.271C12.507 5 12.7257 5.04867 12.927 5.146C13.1283 5.24333 13.3053 5.382 13.458 5.562L17 10ZM15.083 10L12.271 6.5H5.5V13.5H12.271L15.083 10ZM5.5 10V13.5V6.5V10Z" fill="#333333"/>
</svg>
