<svg width="20" height="20" viewBox="0 0 20 20" fill="none" xmlns="http://www.w3.org/2000/svg">
<path d="M13.25 6.708V4.25H6.75V6.708H5V2.5H15V6.708H13.25ZM3.417 8.458H16.583H5.167H3.417ZM15 10.646C15.236 10.646 15.441 10.559 15.615 10.385C15.7883 10.2117 15.875 10.007 15.875 9.771C15.875 9.535 15.7883 9.33 15.615 9.156C15.441 8.98267 15.236 8.896 15 8.896C14.764 8.896 14.559 8.98267 14.385 9.156C14.2117 9.33 14.125 9.535 14.125 9.771C14.125 10.007 14.2117 10.2117 14.385 10.385C14.559 10.559 14.764 10.646 15 10.646ZM13.25 15.75V12.833H6.75V15.75H13.25ZM15 17.5H5V14.438H1.667V9.271C1.667 8.56233 1.917 7.958 2.417 7.458C2.917 6.958 3.521 6.708 4.229 6.708H15.771C16.479 6.708 17.083 6.958 17.583 7.458C18.083 7.958 18.333 8.56233 18.333 9.271V14.438H15V17.5ZM16.583 12.688V9.354C16.583 9.104 16.5103 8.89233 16.365 8.719C16.219 8.545 16.021 8.458 15.771 8.458H4.312C4.06267 8.458 3.851 8.545 3.677 8.719C3.50367 8.89233 3.417 9.104 3.417 9.354V12.688H5V11.083H15V12.688H16.583Z" fill="#333333"/>
</svg>
