<svg width="651" height="651" viewBox="0 0 651 651" fill="none" xmlns="http://www.w3.org/2000/svg">
<path d="M585.77 518.834H542.648V519.159H585.77V518.834Z" fill="#EBEBEB"/>
<path d="M431.248 522.375H419.934V522.701H431.248V522.375Z" fill="#EBEBEB"/>
<path d="M541.346 506.751H516.36V507.077H541.346V506.751Z" fill="#EBEBEB"/>
<path d="M124.536 508.939H68.3029V509.264H124.536V508.939Z" fill="#EBEBEB"/>
<path d="M144.379 508.939H136.137V509.264H144.379V508.939Z" fill="#EBEBEB"/>
<path d="M293.145 514.433H171.174V514.759H293.145V514.433Z" fill="#EBEBEB"/>
<path d="M310.397 439.816H58.9806C57.0089 439.816 55.1179 439.032 53.7237 437.638C52.3295 436.244 51.5462 434.353 51.5462 432.381V78.9793C51.5634 77.0189 52.3542 75.1446 53.7466 73.7644C55.1389 72.3842 57.0201 71.6099 58.9806 71.61H310.397C311.373 71.61 312.34 71.8023 313.242 72.1759C314.144 72.5495 314.963 73.0971 315.654 73.7875C316.344 74.4778 316.892 75.2974 317.265 76.1994C317.639 77.1014 317.831 78.0681 317.831 79.0444V432.381C317.831 433.357 317.639 434.324 317.265 435.226C316.892 436.128 316.344 436.948 315.654 437.638C314.963 438.328 314.144 438.876 313.242 439.25C312.34 439.623 311.373 439.816 310.397 439.816ZM58.9806 71.8704C57.0963 71.8738 55.2901 72.6239 53.9577 73.9563C52.6252 75.2888 51.8751 77.095 51.8717 78.9793V432.381C51.8751 434.266 52.6252 436.072 53.9577 437.404C55.2901 438.737 57.0963 439.487 58.9806 439.49H310.397C312.281 439.487 314.087 438.737 315.42 437.404C316.752 436.072 317.502 434.266 317.506 432.381V78.9793C317.502 77.095 316.752 75.2888 315.42 73.9563C314.087 72.6239 312.281 71.8738 310.397 71.8704H58.9806Z" fill="#EBEBEB"/>
<path d="M592.019 439.816H340.603C338.631 439.816 336.74 439.032 335.346 437.638C333.952 436.244 333.169 434.353 333.169 432.381V78.9793C333.186 77.0189 333.977 75.1446 335.369 73.7644C336.762 72.3842 338.643 71.6099 340.603 71.61H592.019C593.991 71.61 595.882 72.3933 597.276 73.7875C598.671 75.1817 599.454 77.0727 599.454 79.0444V432.381C599.454 434.353 598.671 436.244 597.276 437.638C595.882 439.032 593.991 439.816 592.019 439.816ZM340.603 71.8704C338.719 71.8738 336.913 72.6239 335.58 73.9563C334.248 75.2888 333.498 77.095 333.494 78.9793V432.381C333.498 434.266 334.248 436.072 335.58 437.404C336.913 438.737 338.719 439.487 340.603 439.49H592.019C593.904 439.487 595.71 438.737 597.042 437.404C598.375 436.072 599.125 434.266 599.128 432.381V78.9793C599.125 77.095 598.375 75.2888 597.042 73.9563C595.71 72.6239 593.904 71.8738 592.019 71.8704H340.603Z" fill="#EBEBEB"/>
<path d="M651 497.885H0V498.21H651V497.885Z" fill="#EBEBEB"/>
<path d="M155.368 409.804C154.274 397.227 141.436 392.527 126.216 393.855C110.996 395.183 99.1864 402.045 100.254 414.622L155.368 409.804Z" fill="#F0F0F0"/>
<path d="M125.721 388.113C132.778 387.488 135.03 381.525 134.418 374.468C133.807 367.411 130.512 361.93 123.482 362.542C116.451 363.154 114.172 369.13 114.784 376.187C115.396 383.244 118.664 388.725 125.721 388.113Z" fill="#F0F0F0"/>
<path d="M442.81 141.918C442.934 143.314 442.64 144.715 441.967 145.944C441.294 147.173 440.272 148.175 439.029 148.823C437.787 149.471 436.38 149.735 434.987 149.584C433.594 149.432 432.277 148.87 431.203 147.969C430.13 147.069 429.347 145.87 428.955 144.525C428.563 143.179 428.579 141.748 429 140.411C429.422 139.075 430.23 137.894 431.324 137.017C432.417 136.14 433.745 135.608 435.141 135.486C437.011 135.324 438.869 135.91 440.306 137.116C441.744 138.321 442.645 140.049 442.81 141.918Z" fill="#F5F5F5"/>
<path d="M481.961 138.455C482.082 139.848 481.787 141.245 481.114 142.471C480.441 143.696 479.419 144.694 478.178 145.339C476.938 145.984 475.534 146.246 474.144 146.093C472.754 145.94 471.441 145.379 470.37 144.479C469.3 143.58 468.52 142.383 468.129 141.04C467.739 139.698 467.755 138.27 468.177 136.936C468.598 135.603 469.405 134.424 470.496 133.55C471.587 132.675 472.913 132.144 474.306 132.023C476.173 131.864 478.027 132.452 479.462 133.657C480.897 134.863 481.796 136.588 481.961 138.455Z" fill="#F5F5F5"/>
<path d="M521.125 135.03C521.249 136.426 520.956 137.827 520.283 139.057C519.61 140.286 518.587 141.287 517.345 141.935C516.102 142.583 514.695 142.848 513.302 142.696C511.909 142.544 510.592 141.982 509.519 141.082C508.445 140.181 507.663 138.982 507.27 137.637C506.878 136.292 506.894 134.86 507.315 133.524C507.737 132.187 508.546 131.006 509.639 130.129C510.732 129.253 512.061 128.72 513.457 128.598C515.326 128.436 517.184 129.022 518.622 130.228C520.06 131.434 520.96 133.161 521.125 135.03Z" fill="#F5F5F5"/>
<path d="M446.3 181.785C446.423 183.181 446.13 184.582 445.457 185.811C444.784 187.041 443.761 188.042 442.519 188.69C441.276 189.338 439.869 189.603 438.476 189.451C437.083 189.299 435.766 188.737 434.693 187.836C433.619 186.936 432.837 185.737 432.444 184.392C432.052 183.047 432.068 181.615 432.49 180.279C432.911 178.942 433.72 177.761 434.813 176.884C435.906 176.008 437.235 175.475 438.631 175.353C440.5 175.191 442.358 175.777 443.796 176.983C445.234 178.189 446.134 179.916 446.3 181.785Z" fill="#F5F5F5"/>
<path d="M485.451 178.374C485.572 179.767 485.277 181.165 484.603 182.39C483.93 183.615 482.908 184.614 481.668 185.258C480.427 185.903 479.023 186.166 477.633 186.013C476.243 185.86 474.93 185.298 473.86 184.398C472.789 183.499 472.009 182.302 471.619 180.96C471.228 179.617 471.245 178.189 471.666 176.856C472.087 175.522 472.894 174.344 473.985 173.469C475.076 172.595 476.402 172.063 477.795 171.942C478.72 171.862 479.652 171.964 480.537 172.244C481.423 172.524 482.244 172.975 482.955 173.572C483.666 174.17 484.252 174.901 484.68 175.725C485.109 176.549 485.37 177.449 485.451 178.374Z" fill="#F5F5F5"/>
<path d="M524.615 174.937C524.738 176.333 524.445 177.734 523.772 178.963C523.099 180.192 522.077 181.194 520.834 181.842C519.591 182.49 518.185 182.754 516.791 182.602C515.398 182.45 514.082 181.888 513.008 180.988C511.934 180.087 511.152 178.889 510.76 177.543C510.368 176.198 510.383 174.767 510.805 173.43C511.226 172.094 512.035 170.912 513.128 170.036C514.221 169.159 515.55 168.626 516.946 168.505C518.816 168.342 520.673 168.928 522.111 170.134C523.549 171.34 524.449 173.067 524.615 174.937Z" fill="#F5F5F5"/>
<path d="M449.789 221.705C449.91 223.098 449.615 224.495 448.942 225.721C448.268 226.946 447.247 227.944 446.006 228.589C444.765 229.234 443.361 229.496 441.971 229.343C440.582 229.19 439.268 228.628 438.198 227.729C437.127 226.83 436.347 225.633 435.957 224.29C435.566 222.948 435.583 221.519 436.004 220.186C436.425 218.853 437.232 217.674 438.323 216.8C439.414 215.925 440.74 215.394 442.133 215.273C443.059 215.19 443.991 215.292 444.877 215.571C445.763 215.85 446.585 216.301 447.297 216.899C448.008 217.496 448.594 218.228 449.022 219.053C449.45 219.878 449.71 220.779 449.789 221.705Z" fill="#F5F5F5"/>
<path d="M488.953 218.267C489.077 219.663 488.783 221.064 488.11 222.293C487.437 223.523 486.415 224.524 485.172 225.172C483.93 225.82 482.523 226.085 481.13 225.933C479.737 225.781 478.42 225.219 477.346 224.319C476.273 223.418 475.49 222.219 475.098 220.874C474.706 219.529 474.721 218.097 475.143 216.761C475.565 215.424 476.373 214.243 477.466 213.366C478.56 212.49 479.888 211.957 481.284 211.835C483.154 211.673 485.012 212.259 486.449 213.465C487.887 214.671 488.788 216.398 488.953 218.267Z" fill="#F5F5F5"/>
<path d="M528.104 214.83C528.228 216.226 527.934 217.627 527.261 218.856C526.588 220.085 525.566 221.087 524.323 221.735C523.081 222.383 521.674 222.647 520.281 222.496C518.888 222.344 517.571 221.782 516.497 220.881C515.424 219.981 514.641 218.782 514.249 217.437C513.857 216.091 513.873 214.66 514.294 213.323C514.716 211.987 515.524 210.806 516.618 209.929C517.711 209.052 519.039 208.52 520.435 208.398C522.305 208.236 524.163 208.822 525.6 210.028C527.038 211.234 527.939 212.961 528.104 214.83Z" fill="#F5F5F5"/>
<path d="M519.641 217.148L439.204 224.178L510.527 137.517L437.472 143.91C437.268 143.93 437.062 143.908 436.867 143.847C436.671 143.786 436.49 143.687 436.333 143.554C436.177 143.422 436.048 143.26 435.955 143.077C435.863 142.895 435.807 142.695 435.792 142.491C435.756 142.082 435.884 141.675 436.148 141.36C436.411 141.045 436.789 140.848 437.199 140.811L517.649 133.78L446.313 220.442L519.394 214.049C519.806 214.016 520.214 214.147 520.531 214.412C520.847 214.678 521.047 215.057 521.086 215.468C521.102 215.673 521.078 215.88 521.014 216.075C520.949 216.271 520.847 216.452 520.713 216.608C520.579 216.764 520.415 216.892 520.231 216.985C520.047 217.077 519.847 217.133 519.641 217.148Z" fill="#E6E6E6"/>
<path d="M520.878 371.864C520.754 371.485 520.522 371.151 520.209 370.903C519.896 370.655 519.518 370.505 519.12 370.471C515.623 370.31 512.312 368.847 509.837 366.37C506.621 363.128 504.733 358.219 504.421 352.386C504.391 351.86 504.162 351.365 503.779 351.002C503.397 350.639 502.891 350.436 502.364 350.433C502.079 350.435 501.797 350.494 501.536 350.607C501.274 350.72 501.039 350.885 500.843 351.092C500.647 351.299 500.495 351.543 500.396 351.811C500.297 352.078 500.253 352.362 500.267 352.647C500.632 359.495 502.95 365.354 506.895 369.299C509.984 372.394 514.083 374.274 518.443 374.598H518.743C519.085 374.625 519.429 374.566 519.743 374.427C520.057 374.288 520.332 374.074 520.543 373.804C520.754 373.533 520.896 373.214 520.954 372.876C521.012 372.538 520.986 372.19 520.878 371.864Z" fill="#F0F0F0"/>
<path d="M516.712 396.85C499.46 395.339 487.013 383.582 483.081 365.224C483.018 364.948 483.012 364.663 483.063 364.385C483.114 364.107 483.22 363.842 483.376 363.606C483.531 363.37 483.733 363.168 483.969 363.012C484.205 362.856 484.47 362.749 484.748 362.698C485.274 362.605 485.817 362.717 486.263 363.013C486.709 363.309 487.024 363.765 487.143 364.287C490.672 380.783 501.739 391.355 517.089 392.696C533.911 394.168 551.97 383.101 555.212 355.212C555.268 354.668 555.535 354.168 555.957 353.82C556.378 353.471 556.92 353.303 557.464 353.35C557.74 353.373 558.009 353.45 558.254 353.579C558.499 353.707 558.716 353.883 558.892 354.097C559.068 354.31 559.2 354.557 559.279 354.822C559.358 355.088 559.383 355.366 559.352 355.641C556.24 381.942 538.95 398.79 516.712 396.85Z" fill="#F0F0F0"/>
<path d="M484.162 346.931C483.886 346.908 483.617 346.83 483.372 346.702C483.127 346.574 482.91 346.398 482.734 346.184C482.558 345.97 482.426 345.724 482.347 345.458C482.268 345.193 482.243 344.915 482.274 344.639C485.373 318.339 502.663 301.478 524.888 303.431C544.418 305.137 557.503 319.719 559.548 341.684C559.569 341.96 559.535 342.237 559.448 342.499C559.361 342.762 559.222 343.005 559.04 343.213C558.859 343.421 558.637 343.592 558.389 343.714C558.141 343.836 557.871 343.907 557.595 343.923C557.051 343.949 556.519 343.762 556.111 343.402C555.703 343.043 555.45 342.539 555.407 341.996C553.519 322.206 541.84 309.095 524.537 307.584C507.78 306.113 489.643 317.167 486.414 345.03C486.391 345.303 486.315 345.568 486.189 345.811C486.063 346.055 485.891 346.271 485.682 346.447C485.473 346.624 485.231 346.757 484.97 346.84C484.709 346.923 484.434 346.954 484.162 346.931Z" fill="#F0F0F0"/>
<path d="M517.558 385.691C514.465 385.443 511.434 384.687 508.587 383.452C508.322 383.336 508.083 383.166 507.887 382.952C507.691 382.739 507.541 382.488 507.446 382.214C507.352 381.94 507.316 381.649 507.34 381.36C507.363 381.071 507.447 380.79 507.585 380.536C507.829 380.088 508.23 379.747 508.711 379.579C509.192 379.41 509.719 379.426 510.189 379.624C512.903 380.79 515.805 381.46 518.756 381.603C531.502 382.332 544.965 373.296 546.293 351.475C547.1 338.025 542.491 327.167 533.898 321.972C533.453 321.702 533.125 321.277 532.978 320.778C532.831 320.279 532.876 319.744 533.104 319.276C533.233 319.018 533.415 318.789 533.636 318.604C533.858 318.418 534.115 318.281 534.392 318.199C534.669 318.117 534.96 318.093 535.247 318.128C535.534 318.164 535.81 318.258 536.059 318.404C546.02 324.419 551.358 336.632 550.447 351.722C549.145 372.763 536.046 386.772 518.508 385.77L517.558 385.691Z" fill="#F0F0F0"/>
<path d="M499.017 372.711C498.778 372.873 498.507 372.984 498.223 373.037C497.938 373.09 497.646 373.084 497.364 373.02C497.082 372.955 496.816 372.833 496.583 372.661C496.35 372.489 496.155 372.271 496.01 372.02C492.151 364.845 490.455 356.704 491.127 348.584C492.351 328.443 504.421 314.732 520.813 314.498C521.102 314.492 521.388 314.546 521.655 314.656C521.922 314.767 522.163 314.931 522.364 315.138C522.564 315.346 522.72 315.593 522.82 315.864C522.921 316.135 522.964 316.423 522.948 316.712C522.916 317.232 522.689 317.722 522.313 318.083C521.937 318.445 521.439 318.652 520.917 318.665C508.756 318.899 496.544 328.091 495.294 348.832C494.662 356.161 496.173 363.516 499.642 370.002C499.903 370.453 499.984 370.985 499.868 371.492C499.752 372 499.448 372.444 499.017 372.737V372.711Z" fill="#F0F0F0"/>
<path d="M527.479 371.07C527.282 370.607 527.259 370.088 527.414 369.609C527.57 369.131 527.894 368.725 528.326 368.466C533.807 365.172 537.166 358.258 537.218 349.913C537.218 343.233 535.33 337.583 531.763 334.002C530.377 332.629 528.726 331.554 526.911 330.842C525.095 330.13 523.153 329.797 521.204 329.862C514.785 329.862 509.577 333.39 506.699 339.588C506.477 340.059 506.086 340.429 505.604 340.624C505.121 340.82 504.582 340.826 504.095 340.642C503.824 340.542 503.576 340.386 503.368 340.185C503.159 339.983 502.995 339.741 502.885 339.473C502.774 339.205 502.721 338.918 502.728 338.628C502.735 338.338 502.801 338.053 502.924 337.791C506.491 330.2 513.17 325.708 521.152 325.695C523.652 325.631 526.139 326.073 528.464 326.995C530.789 327.917 532.903 329.299 534.679 331.06C539.041 335.434 541.411 342.14 541.359 349.952C541.28 359.782 537.14 368.036 530.396 372.086C530.14 372.225 529.859 372.309 529.569 372.333C529.279 372.357 528.987 372.32 528.712 372.225C528.438 372.129 528.186 371.977 527.974 371.778C527.761 371.579 527.593 371.338 527.479 371.07Z" fill="#F0F0F0"/>
<path d="M512.48 355.693C512.202 355.807 511.903 355.859 511.603 355.845C511.303 355.832 511.009 355.754 510.742 355.617C510.475 355.48 510.241 355.286 510.055 355.05C509.87 354.814 509.738 354.54 509.668 354.248C509.525 353.688 509.42 353.102 509.329 352.504C508.145 344.692 512.337 337.934 519.068 336.723C520.636 336.382 522.261 336.413 523.814 336.814C525.368 337.214 526.806 337.972 528.013 339.028C528.24 339.229 528.418 339.479 528.534 339.759C528.651 340.039 528.703 340.341 528.687 340.644C528.671 340.947 528.586 341.242 528.441 341.508C528.295 341.773 528.091 342.003 527.844 342.179L527.714 342.27C527.323 342.541 526.851 342.67 526.377 342.635C525.903 342.599 525.455 342.401 525.11 342.075C524.379 341.458 523.516 341.019 522.587 340.793C521.659 340.568 520.69 340.56 519.758 340.773C514.628 341.697 512.675 347.035 513.405 351.826C513.483 352.295 513.561 352.751 513.678 353.128C513.804 353.619 513.748 354.138 513.52 354.59C513.293 355.043 512.91 355.398 512.441 355.589L512.48 355.693Z" fill="#F0F0F0"/>
<path d="M519.368 363.714C519.039 363.682 518.725 363.566 518.453 363.379C518.182 363.191 517.963 362.937 517.817 362.641C517.671 362.346 517.603 362.017 517.619 361.688C517.635 361.358 517.735 361.038 517.91 360.758L518.092 360.472C518.279 360.173 518.544 359.932 518.858 359.773C519.173 359.615 519.525 359.546 519.876 359.573C520.529 359.611 521.184 359.571 521.829 359.456C526.307 358.649 528.339 354.483 528.339 350.238C528.326 349.728 528.498 349.231 528.824 348.838C529.149 348.446 529.606 348.184 530.109 348.103C530.398 348.059 530.693 348.076 530.975 348.153C531.257 348.23 531.519 348.366 531.745 348.552C531.971 348.737 532.156 348.968 532.287 349.229C532.418 349.491 532.492 349.777 532.505 350.069C532.622 356.865 528.599 362.477 522.571 363.558C521.515 363.753 520.438 363.805 519.368 363.714Z" fill="#F0F0F0"/>
<path d="M520.292 356.019C519.241 355.93 518.243 355.515 517.44 354.831C516.637 354.147 516.068 353.228 515.813 352.204C515.74 351.915 515.736 351.613 515.803 351.322C515.87 351.032 516.005 350.761 516.197 350.533C516.39 350.306 516.633 350.127 516.909 350.012C517.184 349.897 517.482 349.85 517.779 349.873H518.261C518.626 349.912 518.971 350.055 519.255 350.286C519.54 350.517 519.751 350.826 519.863 351.175C519.908 351.357 520.009 351.52 520.151 351.641C520.294 351.762 520.47 351.836 520.657 351.852C521.659 351.944 521.829 350.55 521.855 350.212C521.915 349.705 521.82 349.192 521.581 348.741C521.222 348.306 521.036 347.754 521.06 347.191C521.093 346.778 521.249 346.383 521.508 346.059C521.766 345.734 522.116 345.494 522.512 345.37C522.908 345.245 523.332 345.242 523.73 345.36C524.128 345.478 524.481 345.712 524.745 346.033C525.761 347.316 526.229 348.949 526.047 350.577C525.709 354.001 523.3 356.279 520.292 356.019Z" fill="#F0F0F0"/>
<path d="M481.128 309.42C480.856 309.397 480.591 309.321 480.348 309.195C480.106 309.069 479.891 308.897 479.715 308.687C479.54 308.478 479.407 308.236 479.326 307.975C479.244 307.714 479.215 307.44 479.24 307.168L480.816 289.109L498.874 290.698C499.147 290.72 499.412 290.797 499.654 290.923C499.897 291.049 500.112 291.221 500.287 291.431C500.463 291.64 500.595 291.882 500.677 292.143C500.758 292.404 500.787 292.678 500.762 292.95C500.739 293.223 500.663 293.488 500.537 293.731C500.411 293.975 500.239 294.191 500.03 294.367C499.821 294.544 499.579 294.677 499.318 294.76C499.057 294.843 498.783 294.874 498.51 294.851L484.604 293.627L483.394 307.532C483.369 307.805 483.291 308.07 483.164 308.313C483.037 308.556 482.863 308.771 482.652 308.946C482.442 309.122 482.199 309.254 481.937 309.335C481.676 309.416 481.401 309.445 481.128 309.42Z" fill="#F0F0F0"/>
<path d="M566.969 316.933C566.697 316.91 566.432 316.833 566.189 316.708C565.947 316.582 565.731 316.409 565.556 316.2C565.38 315.99 565.248 315.748 565.167 315.487C565.085 315.227 565.056 314.952 565.081 314.68L566.292 300.775L552.387 299.564C552.114 299.54 551.848 299.462 551.606 299.334C551.363 299.207 551.148 299.033 550.973 298.823C550.797 298.612 550.665 298.37 550.584 298.108C550.503 297.846 550.474 297.571 550.499 297.299C550.522 297.026 550.598 296.761 550.724 296.519C550.85 296.276 551.022 296.061 551.232 295.886C551.441 295.71 551.683 295.578 551.944 295.496C552.205 295.415 552.479 295.386 552.751 295.411L570.81 296.986L569.234 315.084C569.175 315.628 568.904 316.127 568.481 316.473C568.057 316.819 567.514 316.984 566.969 316.933Z" fill="#F0F0F0"/>
<path d="M560.576 414.036L542.517 412.461C542.244 412.436 541.979 412.358 541.737 412.231C541.494 412.104 541.279 411.93 541.103 411.719C540.928 411.509 540.796 411.266 540.715 411.004C540.633 410.743 540.604 410.468 540.629 410.195C540.652 409.923 540.729 409.658 540.855 409.415C540.981 409.173 541.153 408.958 541.363 408.782C541.572 408.607 541.814 408.474 542.075 408.393C542.335 408.311 542.61 408.282 542.882 408.307L556.787 409.518L557.998 395.626C558.021 395.352 558.098 395.085 558.224 394.841C558.351 394.597 558.524 394.38 558.735 394.204C558.946 394.027 559.189 393.894 559.451 393.811C559.714 393.729 559.99 393.7 560.264 393.725C560.536 393.748 560.801 393.824 561.043 393.95C561.286 394.076 561.501 394.249 561.677 394.458C561.852 394.667 561.984 394.909 562.066 395.17C562.147 395.431 562.176 395.705 562.151 395.977L560.576 414.036Z" fill="#F0F0F0"/>
<path d="M488.641 407.708L470.582 406.12L472.157 388.074C472.21 387.524 472.477 387.016 472.901 386.66C473.325 386.305 473.871 386.13 474.423 386.173C474.696 386.198 474.961 386.276 475.203 386.403C475.446 386.53 475.661 386.704 475.837 386.914C476.012 387.125 476.144 387.368 476.225 387.629C476.307 387.891 476.336 388.166 476.311 388.439L475.1 402.318L488.992 403.542C489.265 403.565 489.53 403.641 489.774 403.767C490.017 403.893 490.233 404.065 490.409 404.274C490.586 404.483 490.72 404.725 490.803 404.986C490.885 405.247 490.916 405.522 490.893 405.794C490.847 406.346 490.584 406.857 490.162 407.216C489.74 407.575 489.193 407.752 488.641 407.708Z" fill="#F0F0F0"/>
<path d="M97.2985 368.635C96.9592 368.661 96.6234 368.552 96.3631 368.333C96.1027 368.114 95.9384 367.802 95.9053 367.463L94.9418 356.37L106.035 355.394C106.374 355.368 106.71 355.477 106.97 355.696C107.231 355.915 107.395 356.227 107.428 356.566C107.45 356.903 107.34 357.235 107.121 357.493C106.903 357.75 106.592 357.913 106.256 357.946L97.7151 358.701L98.4572 367.242C98.4829 367.579 98.3762 367.913 98.16 368.173C97.9437 368.433 97.6347 368.599 97.2985 368.635Z" fill="#E0E0E0"/>
<path d="M150.082 364.013C149.744 364.039 149.41 363.932 149.15 363.716C148.89 363.5 148.725 363.191 148.688 362.854L147.946 354.3L139.392 355.055C139.053 355.081 138.717 354.972 138.457 354.753C138.196 354.534 138.032 354.222 137.999 353.884C137.974 353.544 138.082 353.209 138.301 352.948C138.52 352.688 138.832 352.524 139.171 352.49L150.264 351.527L151.24 362.62C151.266 362.957 151.159 363.291 150.943 363.551C150.727 363.811 150.418 363.977 150.082 364.013Z" fill="#E0E0E0"/>
<path d="M155.55 411.81L144.444 412.786C144.105 412.812 143.769 412.703 143.509 412.484C143.248 412.265 143.084 411.953 143.051 411.614C143.025 411.275 143.134 410.939 143.353 410.679C143.572 410.419 143.884 410.254 144.223 410.221L152.764 409.479L152.022 400.938C151.996 400.601 152.103 400.267 152.319 400.007C152.535 399.747 152.844 399.581 153.18 399.545C153.518 399.519 153.852 399.626 154.112 399.842C154.372 400.058 154.537 400.367 154.573 400.704L155.55 411.81Z" fill="#E0E0E0"/>
<path d="M111.308 415.677L100.254 416.64L99.2775 405.534C99.2556 405.197 99.3656 404.864 99.5842 404.607C99.8029 404.349 100.113 404.187 100.449 404.154C100.784 404.132 101.115 404.24 101.372 404.456C101.629 404.672 101.793 404.979 101.829 405.313L102.585 413.867L111.126 413.112C111.465 413.086 111.801 413.195 112.061 413.414C112.321 413.633 112.486 413.945 112.519 414.283C112.531 414.454 112.51 414.626 112.455 414.789C112.401 414.952 112.315 415.102 112.203 415.232C112.09 415.361 111.953 415.467 111.8 415.543C111.646 415.62 111.479 415.665 111.308 415.677Z" fill="#E0E0E0"/>
<path d="M149.183 183.582L106.764 187.228L105.892 177.293C105.828 172.552 107.559 167.962 110.738 164.444C113.918 160.926 118.309 158.74 123.033 158.325C127.756 157.91 132.462 159.296 136.206 162.206C139.95 165.115 142.456 169.333 143.22 174.012L143.715 179.793L149.847 179.259L149.339 173.479C149.054 170.218 148.129 167.045 146.617 164.142C145.106 161.239 143.037 158.662 140.53 156.558C138.022 154.455 135.125 152.866 132.003 151.882C128.881 150.898 125.597 150.538 122.336 150.824C115.751 151.4 109.665 154.569 105.416 159.633C103.312 162.141 101.723 165.038 100.739 168.16C99.7551 171.282 99.3956 174.567 99.6811 177.827L100.553 187.827C98.138 188.299 95.9827 189.648 94.5021 191.615C93.0215 193.581 92.3202 196.025 92.5331 198.477L95.5668 233.162C95.675 234.471 96.0407 235.746 96.643 236.913C97.2453 238.081 98.0723 239.118 99.0764 239.965C100.081 240.811 101.242 241.452 102.494 241.848C103.747 242.245 105.065 242.39 106.373 242.276L153.935 238.123C155.245 238.015 156.519 237.649 157.687 237.047C158.854 236.444 159.891 235.617 160.738 234.613C161.585 233.609 162.225 232.448 162.622 231.195C163.018 229.943 163.164 228.625 163.049 227.316L160.016 192.631C159.9 191.325 159.527 190.055 158.92 188.893C158.312 187.732 157.482 186.701 156.476 185.861C155.469 185.02 154.307 184.386 153.056 183.995C151.805 183.604 150.489 183.464 149.183 183.582ZM131.137 210.312L132.179 222.251C132.249 222.732 132.22 223.222 132.095 223.691C131.969 224.16 131.748 224.598 131.447 224.979C131.146 225.36 130.77 225.675 130.343 225.906C129.916 226.137 129.446 226.278 128.962 226.32C128.478 226.363 127.991 226.306 127.53 226.154C127.069 226.001 126.644 225.757 126.28 225.434C125.917 225.112 125.624 224.719 125.418 224.279C125.212 223.839 125.098 223.362 125.083 222.876L124.042 210.924C122.967 210.264 122.129 209.283 121.645 208.119C121.161 206.955 121.057 205.668 121.347 204.441C121.638 203.215 122.308 202.111 123.262 201.287C124.216 200.463 125.405 199.962 126.661 199.853C127.917 199.745 129.175 200.036 130.256 200.684C131.337 201.332 132.186 202.305 132.682 203.464C133.178 204.623 133.296 205.908 133.018 207.138C132.741 208.368 132.083 209.478 131.137 210.312Z" fill="#EBEBEB"/>
<path d="M221.913 203.62L217.629 196.602C215.47 196.909 213.278 196.909 211.119 196.602L206.823 203.594L206.002 203.372C203.218 202.639 200.546 201.531 198.06 200.078L197.331 199.662L199.141 192.058C199.176 191.91 199.24 191.771 199.329 191.649C199.418 191.526 199.531 191.423 199.661 191.344C199.79 191.265 199.934 191.213 200.084 191.19C200.234 191.168 200.387 191.175 200.534 191.212C200.829 191.283 201.084 191.468 201.243 191.727C201.401 191.985 201.451 192.297 201.38 192.592L199.948 198.516C201.798 199.524 203.749 200.336 205.768 200.938L209.96 194.089L210.729 194.219C213.161 194.61 215.64 194.61 218.072 194.219L218.827 194.089L223.02 200.938C225.04 200.34 226.991 199.528 228.84 198.516L226.978 190.704L227.603 190.248C229.299 189.025 230.819 187.575 232.121 185.939C232.301 185.703 232.567 185.547 232.861 185.503C233.155 185.459 233.454 185.531 233.696 185.704C233.823 185.792 233.93 185.905 234.011 186.036C234.093 186.166 234.147 186.312 234.17 186.465C234.193 186.617 234.185 186.773 234.146 186.922C234.107 187.071 234.038 187.21 233.943 187.332C232.664 188.947 231.19 190.399 229.556 191.654L231.47 199.636L230.727 200.052C228.245 201.502 225.578 202.61 222.798 203.346L221.913 203.62ZM195.586 188.334C195.235 187.931 194.883 187.501 194.545 187.032L186.564 188.946L186.134 188.217C184.692 185.726 183.585 183.055 182.84 180.275L182.632 179.455L189.623 175.158C189.316 172.999 189.316 170.807 189.623 168.648L182.632 164.364L182.84 163.531C183.585 160.755 184.692 158.089 186.134 155.602L186.564 154.86L194.545 156.774C195.877 155.03 197.436 153.471 199.18 152.139L197.735 146.097C197.664 145.802 197.714 145.491 197.872 145.232C198.031 144.974 198.286 144.788 198.581 144.717C198.726 144.683 198.877 144.677 199.025 144.701C199.172 144.724 199.314 144.777 199.441 144.856C199.568 144.934 199.678 145.038 199.765 145.159C199.852 145.28 199.914 145.418 199.948 145.564L201.758 153.089L201.133 153.532C199.127 154.975 197.368 156.734 195.925 158.74L195.469 159.365L187.657 157.503C186.645 159.351 185.833 161.302 185.236 163.323L192.071 167.515L191.954 168.27C191.519 170.699 191.519 173.185 191.954 175.614L192.071 176.382L185.236 180.574C185.835 182.59 186.647 184.537 187.657 186.381L195.469 184.519L195.925 185.144C196.33 185.735 196.764 186.304 197.227 186.85C197.428 187.061 197.539 187.34 197.539 187.631C197.539 187.922 197.428 188.202 197.227 188.412C197.116 188.519 196.985 188.601 196.841 188.655C196.697 188.709 196.543 188.733 196.39 188.725C196.236 188.718 196.086 188.68 195.948 188.612C195.81 188.545 195.687 188.451 195.586 188.334ZM242.12 188.972L239.177 188.269C238.882 188.198 238.627 188.013 238.469 187.754C238.31 187.495 238.261 187.184 238.331 186.889C238.402 186.594 238.587 186.339 238.846 186.18C239.105 186.022 239.416 185.972 239.711 186.043L241.013 186.342C242.019 184.497 242.827 182.551 243.422 180.535L236.586 176.343L236.717 175.575C237.151 173.146 237.151 170.66 236.717 168.231L236.586 167.476L243.422 163.284C242.829 161.263 242.022 159.312 241.013 157.464L233.201 159.326L232.759 158.701C231.312 156.698 229.553 154.94 227.551 153.493L226.926 153.05L228.787 145.238C226.939 144.23 224.988 143.422 222.967 142.829L218.736 149.73L217.981 149.6C215.549 149.209 213.07 149.209 210.638 149.6L209.869 149.73L205.716 142.855L204.935 143.09C204.657 143.181 204.354 143.161 204.091 143.032C203.828 142.903 203.626 142.676 203.529 142.4C203.475 142.257 203.45 142.105 203.456 141.953C203.461 141.8 203.498 141.651 203.562 141.513C203.626 141.374 203.717 141.25 203.83 141.148C203.943 141.045 204.075 140.966 204.219 140.915C204.792 140.733 205.377 140.564 205.95 140.408L206.771 140.186L211.067 147.191C213.225 146.87 215.419 146.87 217.577 147.191L221.861 140.186L222.694 140.408C225.471 141.149 228.138 142.257 230.623 143.702L231.365 144.131L229.451 152.113C231.198 153.442 232.757 155.001 234.087 156.748L242.068 154.834L242.497 155.576C243.944 158.06 245.052 160.727 245.792 163.505L246.013 164.338L239.008 168.622C239.333 170.78 239.333 172.974 239.008 175.132L246.013 179.429L245.792 180.249C245.052 183.031 243.945 185.702 242.497 188.191L242.12 188.972ZM214.023 183.061C211.186 182.949 208.495 181.771 206.488 179.764C204.48 177.756 203.302 175.066 203.19 172.229C203.113 169.438 204.083 166.72 205.909 164.609C207.736 162.498 210.287 161.147 213.059 160.823C213.222 160.803 213.387 160.817 213.544 160.865C213.7 160.914 213.845 160.995 213.968 161.103C214.091 161.211 214.19 161.344 214.258 161.494C214.325 161.643 214.361 161.805 214.361 161.969C214.36 162.246 214.257 162.513 214.072 162.719C213.888 162.925 213.634 163.057 213.359 163.088C211.429 163.309 209.626 164.156 208.224 165.5C206.823 166.845 205.902 168.612 205.603 170.531C205.303 172.449 205.642 174.413 206.567 176.121C207.492 177.828 208.952 179.185 210.722 179.982C212.493 180.78 214.476 180.974 216.368 180.535C218.259 180.096 219.955 179.048 221.193 177.553C222.431 176.057 223.144 174.196 223.223 172.256C223.301 170.315 222.74 168.403 221.626 166.812C221.466 166.587 221.395 166.309 221.429 166.035C221.463 165.76 221.598 165.508 221.809 165.328C221.93 165.22 222.073 165.139 222.228 165.091C222.384 165.042 222.547 165.028 222.709 165.047C222.87 165.067 223.025 165.121 223.164 165.205C223.303 165.289 223.422 165.402 223.514 165.536C224.699 167.231 225.388 169.221 225.506 171.285C225.625 173.349 225.166 175.405 224.183 177.223C223.199 179.042 221.729 180.551 219.937 181.582C218.145 182.613 216.102 183.125 214.036 183.061H214.023Z" fill="#F0F0F0"/>
<path d="M141.02 298.926L138.246 294.408C136.844 294.617 135.418 294.617 134.015 294.408L131.242 298.926L130.708 298.783C128.91 298.309 127.185 297.595 125.578 296.661L125.109 296.387L126.281 291.466C126.327 291.277 126.446 291.113 126.612 291.011C126.777 290.909 126.977 290.876 127.166 290.919C127.261 290.942 127.351 290.983 127.43 291.041C127.509 291.098 127.576 291.171 127.626 291.254C127.677 291.338 127.711 291.431 127.726 291.527C127.741 291.624 127.736 291.722 127.713 291.817L126.802 295.645C127.996 296.299 129.258 296.823 130.565 297.208L133.273 292.794L133.754 292.872C135.328 293.132 136.933 293.132 138.507 292.872L138.989 292.794L141.71 297.208C143.009 296.815 144.266 296.292 145.459 295.645L144.262 290.619L144.665 290.32C145.76 289.533 146.741 288.6 147.582 287.547C147.696 287.392 147.867 287.289 148.057 287.259C148.248 287.23 148.442 287.277 148.597 287.39C148.677 287.447 148.745 287.52 148.797 287.603C148.849 287.686 148.884 287.779 148.899 287.876C148.915 287.973 148.911 288.072 148.889 288.167C148.866 288.263 148.824 288.353 148.767 288.432C147.937 289.476 146.984 290.416 145.928 291.231L147.23 296.439L146.748 296.713C145.142 297.649 143.417 298.363 141.619 298.835L141.02 298.926ZM124.016 289.044L123.338 288.224L118.13 289.448L117.857 288.979C116.94 287.365 116.244 285.635 115.787 283.836L115.644 283.302L120.162 280.529C119.953 279.126 119.953 277.7 120.162 276.297L115.644 273.524L115.787 272.99C116.259 271.192 116.973 269.466 117.909 267.86L118.183 267.379L123.391 268.681C124.228 267.541 125.203 266.509 126.294 265.608L125.37 261.702C125.346 261.608 125.342 261.51 125.357 261.414C125.372 261.319 125.406 261.227 125.457 261.145C125.508 261.062 125.575 260.991 125.654 260.934C125.733 260.878 125.822 260.838 125.916 260.817C126.106 260.773 126.305 260.807 126.471 260.909C126.637 261.011 126.755 261.174 126.802 261.363L127.974 266.22L127.557 266.519C126.267 267.445 125.136 268.575 124.211 269.866L123.911 270.269L118.886 269.071C118.239 270.265 117.716 271.521 117.323 272.821L121.737 275.529L121.659 276.024C121.525 276.807 121.455 277.599 121.451 278.394C121.455 279.192 121.525 279.989 121.659 280.776L121.737 281.258L117.323 283.966C117.713 285.271 118.237 286.532 118.886 287.729L123.911 286.518L124.211 286.922C124.48 287.307 124.771 287.677 125.083 288.028C125.211 288.164 125.283 288.343 125.283 288.53C125.283 288.716 125.211 288.896 125.083 289.031C125.016 289.105 124.934 289.165 124.843 289.206C124.751 289.247 124.652 289.269 124.552 289.27C124.452 289.271 124.353 289.252 124.26 289.213C124.168 289.174 124.085 289.116 124.016 289.044ZM154.079 289.448L152.178 289.005C152.083 288.982 151.993 288.941 151.914 288.883C151.835 288.825 151.769 288.753 151.718 288.669C151.667 288.586 151.633 288.493 151.618 288.397C151.603 288.3 151.608 288.201 151.631 288.107C151.652 288.012 151.692 287.923 151.749 287.844C151.805 287.765 151.876 287.698 151.959 287.647C152.041 287.596 152.133 287.562 152.229 287.547C152.324 287.532 152.422 287.537 152.516 287.56L153.337 287.755C153.991 286.56 154.515 285.299 154.899 283.992L150.485 281.284L150.563 280.802C150.698 280.015 150.767 279.218 150.772 278.42C150.767 277.625 150.698 276.833 150.563 276.05L150.485 275.555L154.899 272.847C154.512 271.545 153.989 270.288 153.337 269.097L148.311 270.295L148.011 269.892C147.086 268.601 145.956 267.471 144.665 266.545L144.262 266.246L145.459 261.22C144.268 260.568 143.011 260.044 141.71 259.658L138.989 264.072L138.507 263.993C136.933 263.733 135.328 263.733 133.754 263.993L133.273 264.072L130.565 259.658L130.057 259.814C129.875 259.872 129.679 259.857 129.508 259.772C129.338 259.687 129.208 259.538 129.145 259.358C129.11 259.267 129.094 259.17 129.097 259.072C129.101 258.974 129.124 258.878 129.165 258.789C129.206 258.701 129.265 258.621 129.338 258.556C129.41 258.49 129.496 258.44 129.588 258.408L130.708 258.069L131.242 257.939L134.015 262.457C135.418 262.249 136.844 262.249 138.246 262.457L141.02 257.939L141.553 258.069C143.35 258.552 145.075 259.27 146.683 260.205L147.165 260.478L145.863 265.686C146.984 266.553 147.99 267.56 148.858 268.681L154.066 267.379L154.339 267.86C155.275 269.466 155.989 271.192 156.461 272.99L156.605 273.524L152.087 276.297C152.295 277.7 152.295 279.126 152.087 280.529L156.605 283.302L156.461 283.836C155.987 285.633 155.273 287.359 154.339 288.966L154.079 289.448ZM135.929 285.633C134.16 285.511 132.497 284.743 131.259 283.473C130.021 282.204 129.293 280.523 129.216 278.751C129.139 276.979 129.717 275.241 130.84 273.869C131.963 272.496 133.552 271.586 135.304 271.311C135.408 271.3 135.514 271.311 135.614 271.343C135.714 271.375 135.806 271.428 135.884 271.498C135.963 271.568 136.026 271.653 136.069 271.749C136.113 271.844 136.136 271.948 136.137 272.053C136.138 272.233 136.072 272.408 135.952 272.543C135.832 272.677 135.666 272.763 135.486 272.782C134.388 272.908 133.35 273.348 132.496 274.051C131.643 274.753 131.011 275.688 130.677 276.741C130.342 277.795 130.32 278.923 130.612 279.989C130.905 281.055 131.499 282.013 132.324 282.749C133.149 283.485 134.169 283.966 135.262 284.135C136.354 284.304 137.472 284.153 138.481 283.701C139.489 283.249 140.346 282.515 140.946 281.587C141.547 280.659 141.866 279.577 141.866 278.472C141.868 277.296 141.504 276.149 140.824 275.191C140.725 275.043 140.682 274.864 140.704 274.687C140.725 274.51 140.81 274.347 140.942 274.227C141.02 274.157 141.112 274.104 141.213 274.072C141.313 274.04 141.42 274.03 141.524 274.042C141.629 274.054 141.73 274.089 141.82 274.143C141.911 274.198 141.988 274.271 142.048 274.357C142.81 275.453 143.252 276.738 143.327 278.07C143.402 279.402 143.106 280.729 142.472 281.903C141.838 283.077 140.89 284.052 139.735 284.719C138.58 285.387 137.262 285.721 135.929 285.685V285.633Z" fill="#E6E6E6"/>
<path d="M325.5 555.967C464.921 555.967 577.945 549.368 577.945 541.228C577.945 533.088 464.921 526.49 325.5 526.49C186.079 526.49 73.0552 533.088 73.0552 541.228C73.0552 549.368 186.079 555.967 325.5 555.967Z" fill="#F5F5F5"/>
<path d="M473.212 189.871H430.819L400.873 532.622H443.266C449.216 532.507 454.918 530.219 459.298 526.19C463.677 522.161 466.431 516.668 467.04 510.749L493.198 211.731C493.501 208.945 493.208 206.126 492.337 203.463C491.466 200.799 490.038 198.351 488.147 196.283C486.256 194.214 483.946 192.573 481.37 191.467C478.795 190.361 476.014 189.817 473.212 189.871Z" fill="#407BFF"/>
<path d="M464.567 189.871H321.086C315.136 189.982 309.432 192.267 305.05 196.294C300.668 200.321 297.911 205.812 297.299 211.731L271.141 510.749C270.84 513.533 271.134 516.349 272.004 519.011C272.875 521.672 274.301 524.119 276.188 526.187C278.076 528.256 280.381 529.899 282.953 531.009C285.524 532.118 288.301 532.668 291.101 532.622H434.568C440.511 532.495 446.202 530.202 450.573 526.174C454.944 522.146 457.693 516.661 458.304 510.749L484.461 211.731C484.764 208.953 484.473 206.142 483.607 203.485C482.742 200.828 481.322 198.385 479.44 196.318C477.559 194.251 475.261 192.607 472.696 191.496C470.132 190.384 467.361 189.83 464.567 189.871Z" fill="#407BFF"/>
<path opacity="0.3" d="M464.567 189.871H321.086C315.136 189.982 309.432 192.267 305.05 196.294C300.668 200.321 297.911 205.812 297.299 211.731L271.141 510.749C270.84 513.533 271.134 516.349 272.004 519.011C272.875 521.672 274.301 524.119 276.188 526.187C278.076 528.256 280.381 529.899 282.953 531.009C285.524 532.118 288.301 532.668 291.101 532.622H434.568C440.511 532.495 446.202 530.202 450.573 526.174C454.944 522.146 457.693 516.661 458.304 510.749L484.461 211.731C484.764 208.953 484.473 206.142 483.607 203.485C482.742 200.828 481.322 198.385 479.44 196.318C477.559 194.251 475.261 192.607 472.696 191.496C470.132 190.384 467.361 189.83 464.567 189.871Z" fill="white"/>
<path opacity="0.4" d="M463.955 196.875H426.119C424.991 196.885 423.891 197.232 422.963 197.873C422.034 198.513 421.32 199.418 420.911 200.469C419.418 204.331 416.809 207.66 413.417 210.032C410.024 212.405 406.001 213.712 401.862 213.788H379.546C375.648 213.867 371.844 212.584 368.79 210.16C365.736 207.736 363.623 204.322 362.815 200.508C362.6 199.476 362.03 198.552 361.205 197.896C360.38 197.239 359.351 196.892 358.297 196.915H320.474C316.43 196.986 312.553 198.537 309.575 201.275C306.598 204.012 304.727 207.746 304.316 211.77L278.146 510.788C277.937 512.681 278.133 514.597 278.723 516.408C279.313 518.22 280.282 519.884 281.566 521.292C282.85 522.699 284.419 523.816 286.169 524.569C287.918 525.321 289.809 525.692 291.713 525.657H435.193C439.239 525.582 443.117 524.028 446.094 521.288C449.071 518.548 450.941 514.813 451.351 510.788L477.508 211.77C477.722 209.876 477.529 207.958 476.941 206.145C476.354 204.331 475.387 202.664 474.104 201.254C472.821 199.844 471.252 198.724 469.502 197.969C467.752 197.214 465.861 196.841 463.955 196.875Z" fill="white"/>
<path d="M428.202 359.352H327.792C327.101 359.363 326.417 359.228 325.783 358.955C325.149 358.681 324.581 358.276 324.115 357.767C323.65 357.257 323.298 356.654 323.084 355.998C322.869 355.342 322.796 354.648 322.87 353.962L323.378 348.207C323.527 346.748 324.205 345.394 325.285 344.401C326.364 343.408 327.77 342.844 329.237 342.817H429.66C430.35 342.805 431.035 342.941 431.669 343.214C432.302 343.488 432.871 343.892 433.336 344.402C433.802 344.912 434.153 345.515 434.368 346.171C434.583 346.827 434.656 347.521 434.582 348.207L434.087 353.962C433.934 355.424 433.251 356.78 432.167 357.773C431.083 358.767 429.672 359.328 428.202 359.352Z" fill="white"/>
<path d="M426.04 384.09H325.617C324.928 384.102 324.243 383.966 323.61 383.693C322.977 383.419 322.409 383.014 321.945 382.504C321.48 381.994 321.13 381.391 320.917 380.735C320.704 380.079 320.633 379.385 320.709 378.7L321.203 372.945C321.355 371.487 322.035 370.134 323.114 369.142C324.192 368.149 325.597 367.585 327.062 367.555H427.486C428.176 367.543 428.86 367.679 429.494 367.952C430.128 368.225 430.696 368.63 431.162 369.14C431.627 369.65 431.979 370.253 432.194 370.909C432.408 371.565 432.481 372.259 432.407 372.945L431.899 378.7C431.747 380.158 431.068 381.51 429.989 382.503C428.91 383.495 427.506 384.06 426.04 384.09Z" fill="white"/>
<path opacity="0.1" d="M397.696 202.474C397.53 204.094 396.776 205.598 395.576 206.699C394.377 207.801 392.814 208.424 391.186 208.45C390.421 208.464 389.661 208.315 388.958 208.012C388.255 207.709 387.624 207.26 387.108 206.695C386.592 206.13 386.202 205.461 385.964 204.733C385.727 204.005 385.647 203.235 385.731 202.474C385.896 200.854 386.65 199.35 387.85 198.249C389.05 197.148 390.612 196.525 392.241 196.498C393.006 196.484 393.766 196.634 394.469 196.936C395.172 197.239 395.803 197.688 396.319 198.253C396.835 198.819 397.225 199.487 397.462 200.215C397.7 200.943 397.779 201.713 397.696 202.474Z" fill="black"/>
<path opacity="0.1" d="M394.988 202.474C394.896 203.359 394.484 204.179 393.829 204.781C393.174 205.383 392.322 205.725 391.433 205.742C391.015 205.75 390.599 205.669 390.214 205.504C389.83 205.338 389.485 205.093 389.202 204.783C388.92 204.474 388.707 204.108 388.578 203.71C388.448 203.312 388.405 202.89 388.452 202.474C388.541 201.589 388.952 200.766 389.607 200.164C390.263 199.562 391.116 199.221 392.006 199.206C392.424 199.2 392.839 199.283 393.223 199.449C393.606 199.615 393.95 199.86 394.232 200.169C394.514 200.478 394.727 200.843 394.857 201.241C394.988 201.638 395.032 202.058 394.988 202.474Z" fill="black"/>
<g opacity="0.8">
<path d="M446.287 212.447C446.062 212.451 445.839 212.406 445.633 212.317C445.427 212.227 445.242 212.095 445.09 211.929C444.939 211.763 444.825 211.567 444.755 211.353C444.685 211.139 444.661 210.913 444.685 210.69L444.972 207.487C445.019 207.014 445.239 206.574 445.59 206.253C445.94 205.931 446.397 205.749 446.872 205.742C447.096 205.739 447.318 205.784 447.523 205.872C447.728 205.961 447.912 206.092 448.063 206.256C448.215 206.421 448.329 206.616 448.4 206.828C448.471 207.04 448.496 207.264 448.474 207.487L448.188 210.69C448.14 211.164 447.92 211.605 447.57 211.929C447.22 212.253 446.763 212.437 446.287 212.447Z" fill="white"/>
<path d="M460.296 212.448C460.071 212.451 459.849 212.406 459.642 212.317C459.436 212.227 459.251 212.095 459.1 211.929C458.949 211.763 458.834 211.567 458.764 211.353C458.694 211.139 458.671 210.913 458.695 210.69L459.359 203.177C459.406 202.704 459.627 202.265 459.977 201.943C460.327 201.621 460.784 201.44 461.26 201.433C461.483 201.43 461.705 201.474 461.91 201.563C462.115 201.651 462.299 201.782 462.451 201.947C462.602 202.111 462.716 202.306 462.787 202.518C462.858 202.73 462.883 202.955 462.861 203.177L462.197 210.69C462.149 211.164 461.93 211.605 461.58 211.929C461.229 212.253 460.773 212.437 460.296 212.448Z" fill="white"/>
<path d="M453.291 212.447C453.067 212.451 452.844 212.406 452.638 212.317C452.431 212.227 452.246 212.095 452.095 211.929C451.944 211.763 451.829 211.566 451.759 211.353C451.69 211.139 451.666 210.913 451.69 210.69L452.159 205.339C452.206 204.862 452.428 204.419 452.781 204.095C453.134 203.771 453.593 203.588 454.073 203.581C454.297 203.577 454.519 203.622 454.725 203.712C454.93 203.801 455.115 203.933 455.265 204.1C455.415 204.266 455.528 204.463 455.597 204.676C455.665 204.89 455.687 205.116 455.661 205.339L455.192 210.69C455.145 211.164 454.925 211.605 454.575 211.929C454.225 212.253 453.768 212.437 453.291 212.447Z" fill="white"/>
</g>
<g opacity="0.8">
<path d="M326.333 212.447H317.532C317.405 212.45 317.279 212.426 317.163 212.376C317.046 212.326 316.942 212.251 316.857 212.157C316.772 212.064 316.708 211.953 316.669 211.832C316.631 211.711 316.618 211.584 316.633 211.458L317.037 206.732C317.065 206.463 317.191 206.215 317.39 206.032C317.589 205.85 317.848 205.747 318.118 205.742H326.919C327.046 205.739 327.172 205.764 327.288 205.814C327.404 205.864 327.509 205.938 327.594 206.032C327.679 206.126 327.743 206.237 327.782 206.358C327.82 206.478 327.832 206.606 327.818 206.732L327.401 211.458C327.378 211.726 327.256 211.976 327.059 212.159C326.861 212.342 326.602 212.445 326.333 212.447Z" fill="white"/>
<path d="M330.409 211.158C330.281 211.161 330.155 211.136 330.038 211.087C329.921 211.037 329.816 210.962 329.73 210.869C329.644 210.775 329.579 210.665 329.538 210.544C329.498 210.423 329.484 210.295 329.497 210.169L329.692 208.008C329.718 207.738 329.843 207.488 330.043 207.305C330.242 207.122 330.502 207.02 330.773 207.018C330.9 207.015 331.026 207.04 331.142 207.09C331.258 207.14 331.363 207.214 331.448 207.308C331.533 207.402 331.597 207.513 331.636 207.634C331.674 207.754 331.686 207.882 331.671 208.008L331.489 210.169C331.461 210.437 331.335 210.686 331.136 210.868C330.937 211.05 330.678 211.154 330.409 211.158Z" fill="white"/>
</g>
<path d="M411.657 321.504C429.177 304.732 430.924 278.124 415.559 262.073C400.194 246.023 373.535 246.608 356.015 263.38C338.494 280.152 336.747 306.76 352.112 322.811C367.477 338.861 394.136 338.276 411.657 321.504Z" fill="white"/>
<path d="M383.986 290.841C372.945 290.841 363.61 295.046 362.815 304.173L361.93 314.316H401.94L402.826 304.173C403.62 295.046 395.04 290.841 383.986 290.841Z" fill="#407BFF"/>
<path d="M384.35 286.661C389.48 286.661 391.85 282.508 392.293 277.378C392.735 272.248 391.108 268.095 385.978 268.095C380.848 268.095 378.491 272.261 378.036 277.378C377.58 282.495 379.221 286.661 384.35 286.661Z" fill="#407BFF"/>
<path d="M423.619 350.733C420.898 350.733 418.593 351.774 418.411 354.027L418.189 356.54H428.072L428.293 354.027C428.475 351.774 426.353 350.733 423.619 350.733Z" fill="#407BFF"/>
<path d="M423.71 349.704C425.012 349.704 425.559 348.676 425.676 347.413C425.793 346.15 425.376 345.121 424.113 345.121C422.851 345.121 422.265 346.15 422.147 347.413C422.03 348.676 422.447 349.704 423.71 349.704Z" fill="#407BFF"/>
<path d="M393.204 408.828H354.144C353.085 408.847 352.034 408.641 351.061 408.222C350.088 407.803 349.215 407.182 348.5 406.4C347.786 405.618 347.246 404.693 346.917 403.686C346.588 402.679 346.478 401.613 346.592 400.56C346.824 398.322 347.867 396.245 349.524 394.722C351.182 393.199 353.339 392.335 355.589 392.293H394.649C395.708 392.276 396.758 392.484 397.73 392.903C398.702 393.322 399.574 393.943 400.288 394.725C401.002 395.507 401.542 396.431 401.871 397.437C402.201 398.443 402.313 399.508 402.201 400.56C401.972 402.8 400.93 404.879 399.272 406.402C397.614 407.926 395.455 408.789 393.204 408.828Z" fill="#407BFF"/>
<path d="M388.478 501.036H346.671C345.549 501.066 344.434 500.855 343.402 500.415C342.369 499.976 341.443 499.32 340.687 498.491C339.931 497.662 339.362 496.68 339.02 495.611C338.677 494.543 338.569 493.413 338.702 492.299L341.371 461.806C341.61 459.441 342.708 457.245 344.457 455.635C346.207 454.025 348.486 453.112 350.863 453.07H392.683C393.802 453.05 394.912 453.269 395.939 453.712C396.966 454.155 397.888 454.811 398.641 455.638C399.395 456.464 399.964 457.442 400.311 458.506C400.658 459.569 400.774 460.694 400.651 461.806L397.982 492.299C397.738 494.665 396.636 496.859 394.886 498.469C393.135 500.078 390.855 500.991 388.478 501.036Z" fill="#407BFF"/>
<g opacity="0.6">
<path d="M375.588 469.501C375.656 468.836 375.583 468.163 375.372 467.529C375.161 466.894 374.817 466.311 374.365 465.819C373.912 465.326 373.359 464.936 372.744 464.673C372.129 464.41 371.465 464.281 370.797 464.293C369.372 464.314 368.005 464.855 366.952 465.814C365.899 466.773 365.233 468.085 365.081 469.501C364.998 470.293 365.115 471.094 365.423 471.828C365.73 472.563 366.217 473.209 366.839 473.707L365.927 484.214C365.883 484.612 365.923 485.015 366.047 485.396C366.171 485.777 366.375 486.127 366.645 486.423C366.914 486.718 367.245 486.953 367.613 487.111C367.981 487.269 368.378 487.347 368.778 487.339C369.627 487.321 370.439 486.993 371.063 486.418C371.687 485.842 372.078 485.058 372.164 484.214L373.088 473.707C373.786 473.23 374.371 472.606 374.803 471.88C375.234 471.154 375.502 470.342 375.588 469.501Z" fill="white"/>
</g>
<path d="M393.048 459.424H387.657L388.959 444.334C389.187 442.239 388.966 440.121 388.312 438.118C387.658 436.115 386.586 434.275 385.166 432.718C383.746 431.162 382.012 429.925 380.078 429.091C378.143 428.256 376.054 427.842 373.947 427.876C369.471 427.964 365.181 429.686 361.886 432.717C358.591 435.748 356.518 439.88 356.058 444.334L354.756 459.424H349.366L350.668 444.334C351.274 438.423 354.023 432.939 358.396 428.917C362.769 424.894 368.463 422.611 374.403 422.499C377.199 422.451 379.973 422.999 382.541 424.106C385.109 425.212 387.412 426.853 389.297 428.918C391.183 430.983 392.607 433.426 393.476 436.084C394.345 438.741 394.638 441.554 394.337 444.334L393.048 459.424Z" fill="#407BFF"/>
<path d="M424.283 373.843L424.452 372.372C424.487 372.031 424.449 371.687 424.342 371.361C424.234 371.036 424.059 370.736 423.828 370.483C423.597 370.23 423.315 370.029 423.001 369.892C422.687 369.755 422.347 369.686 422.004 369.69C421.275 369.705 420.576 369.986 420.039 370.48C419.502 370.974 419.164 371.646 419.088 372.372L418.958 373.817C418.666 373.825 418.387 373.94 418.174 374.139C417.961 374.338 417.827 374.608 417.799 374.898L417.46 378.804C417.443 378.94 417.456 379.079 417.498 379.21C417.54 379.341 417.609 379.462 417.702 379.563C417.795 379.665 417.909 379.745 418.036 379.798C418.162 379.851 418.299 379.876 418.437 379.872H423.801C424.091 379.867 424.37 379.755 424.584 379.558C424.797 379.361 424.931 379.093 424.96 378.804L425.298 374.898C425.31 374.76 425.291 374.621 425.245 374.491C425.198 374.36 425.124 374.241 425.028 374.142C424.932 374.042 424.816 373.964 424.688 373.912C424.559 373.861 424.421 373.837 424.283 373.843ZM421.848 370.38C422.106 370.377 422.362 370.428 422.599 370.531C422.837 370.634 423.049 370.785 423.224 370.976C423.398 371.166 423.531 371.391 423.612 371.636C423.694 371.881 423.723 372.141 423.697 372.398L423.567 373.843H419.53L419.661 372.398C419.718 371.853 419.971 371.348 420.374 370.976C420.776 370.605 421.3 370.393 421.848 370.38Z" fill="#407BFF"/>
<path d="M343.533 375.393L341.658 375.002C341.606 374.991 341.557 374.969 341.514 374.936C341.472 374.904 341.438 374.862 341.414 374.815C341.39 374.767 341.377 374.715 341.377 374.661C341.376 374.608 341.388 374.555 341.41 374.507L342.192 372.658C342.224 372.579 342.227 372.49 342.201 372.408C342.174 372.326 342.119 372.256 342.045 372.211C341.972 372.165 341.885 372.148 341.8 372.16C341.714 372.173 341.637 372.216 341.58 372.281L340.161 373.739C340.126 373.782 340.083 373.817 340.033 373.842C339.984 373.866 339.929 373.878 339.874 373.878C339.819 373.878 339.764 373.866 339.715 373.842C339.665 373.817 339.622 373.782 339.588 373.739L338.429 372.281C338.181 371.968 337.648 372.281 337.739 372.658L338.195 374.507C338.208 374.561 338.21 374.617 338.2 374.672C338.191 374.727 338.17 374.779 338.14 374.826C338.109 374.872 338.069 374.912 338.023 374.942C337.976 374.972 337.924 374.993 337.869 375.002L335.929 375.393C335.512 375.471 335.46 376.057 335.864 376.135L337.739 376.525C337.791 376.535 337.841 376.557 337.883 376.59C337.925 376.623 337.959 376.665 337.982 376.713C338.005 376.761 338.016 376.814 338.014 376.868C338.013 376.921 337.999 376.973 337.973 377.02L337.218 378.882C337.186 378.962 337.182 379.051 337.209 379.133C337.236 379.215 337.291 379.284 337.364 379.33C337.438 379.375 337.525 379.393 337.61 379.38C337.695 379.367 337.773 379.324 337.83 379.26L339.249 377.801C339.286 377.762 339.33 377.73 339.379 377.709C339.429 377.687 339.482 377.676 339.536 377.676C339.589 377.676 339.643 377.687 339.692 377.709C339.741 377.73 339.785 377.762 339.822 377.801L340.981 379.26C341.228 379.572 341.762 379.26 341.658 378.882L341.202 377.033C341.183 376.923 341.208 376.809 341.271 376.717C341.334 376.625 341.431 376.56 341.541 376.538L343.481 376.148C343.884 376.057 343.936 375.471 343.533 375.393Z" fill="#263238"/>
<path d="M355.85 375.393L353.975 375.002C353.923 374.991 353.873 374.969 353.831 374.936C353.789 374.904 353.755 374.862 353.731 374.815C353.707 374.767 353.694 374.715 353.694 374.661C353.693 374.608 353.705 374.555 353.727 374.507L354.509 372.658C354.541 372.579 354.544 372.49 354.517 372.408C354.491 372.326 354.436 372.256 354.362 372.211C354.289 372.165 354.202 372.148 354.117 372.16C354.031 372.173 353.953 372.216 353.897 372.281L352.477 373.739C352.443 373.782 352.4 373.817 352.35 373.842C352.301 373.866 352.246 373.878 352.191 373.878C352.136 373.878 352.081 373.866 352.032 373.842C351.982 373.817 351.939 373.782 351.905 373.739L350.746 372.281C350.498 371.968 349.965 372.281 350.069 372.658L350.524 374.507C350.536 374.562 350.536 374.619 350.525 374.673C350.514 374.728 350.492 374.78 350.46 374.826C350.429 374.873 350.388 374.912 350.341 374.942C350.294 374.972 350.241 374.993 350.186 375.002L348.246 375.393C347.829 375.471 347.777 376.057 348.181 376.135L350.056 376.525C350.108 376.536 350.157 376.558 350.199 376.591C350.242 376.623 350.276 376.665 350.3 376.713C350.324 376.76 350.336 376.813 350.337 376.866C350.337 376.919 350.326 376.972 350.303 377.02L349.522 378.869C349.489 378.949 349.486 379.038 349.513 379.12C349.54 379.202 349.595 379.271 349.668 379.317C349.742 379.362 349.829 379.38 349.914 379.367C349.999 379.354 350.077 379.311 350.134 379.247L351.553 377.788C351.59 377.749 351.634 377.717 351.683 377.696C351.732 377.674 351.786 377.663 351.839 377.663C351.893 377.663 351.946 377.674 351.996 377.696C352.045 377.717 352.089 377.749 352.126 377.788L353.285 379.247C353.532 379.559 354.066 379.246 353.975 378.869L353.519 377.02C353.508 376.966 353.507 376.911 353.517 376.856C353.527 376.802 353.548 376.751 353.579 376.705C353.609 376.659 353.648 376.619 353.694 376.588C353.739 376.558 353.791 376.536 353.845 376.525L355.785 376.135C356.201 376.057 356.253 375.471 355.85 375.393Z" fill="#263238"/>
<path d="M368.167 375.393L366.305 375.002C366.251 374.994 366.2 374.973 366.156 374.941C366.113 374.909 366.077 374.867 366.053 374.819C366.029 374.77 366.016 374.717 366.017 374.663C366.018 374.608 366.032 374.555 366.057 374.507L366.838 372.658C366.889 372.576 366.904 372.476 366.88 372.382C366.857 372.288 366.798 372.207 366.715 372.157C366.632 372.107 366.533 372.092 366.439 372.115C366.345 372.138 366.264 372.198 366.214 372.281L364.807 373.739C364.772 373.783 364.727 373.818 364.677 373.842C364.626 373.866 364.571 373.879 364.514 373.879C364.458 373.879 364.403 373.866 364.352 373.842C364.302 373.818 364.257 373.783 364.221 373.739L363.063 372.281C362.815 371.968 362.281 372.281 362.386 372.658L362.841 374.507C362.853 374.561 362.853 374.617 362.843 374.671C362.833 374.725 362.812 374.777 362.782 374.823C362.752 374.869 362.712 374.908 362.667 374.939C362.621 374.97 362.57 374.991 362.516 375.002L360.576 375.393C360.159 375.471 360.107 376.057 360.511 376.135L362.373 376.525C362.425 376.536 362.474 376.558 362.516 376.591C362.558 376.623 362.593 376.665 362.617 376.713C362.641 376.76 362.653 376.813 362.654 376.866C362.654 376.919 362.643 376.972 362.62 377.02L361.839 378.869C361.789 378.952 361.774 379.051 361.797 379.145C361.82 379.239 361.88 379.32 361.962 379.37C362.045 379.42 362.145 379.435 362.239 379.412C362.333 379.389 362.414 379.329 362.464 379.247L363.87 377.788C363.906 377.749 363.951 377.717 364 377.696C364.049 377.674 364.103 377.663 364.156 377.663C364.21 377.663 364.263 377.674 364.313 377.696C364.362 377.717 364.406 377.749 364.443 377.788L365.615 379.247C365.862 379.559 366.396 379.247 366.292 378.869L365.836 377.02C365.816 376.912 365.839 376.8 365.9 376.708C365.96 376.616 366.054 376.55 366.161 376.525L368.101 376.135C368.466 376.057 368.57 375.471 368.167 375.393Z" fill="#263238"/>
<path d="M380.496 375.393L378.622 375.002C378.569 374.991 378.52 374.969 378.478 374.936C378.436 374.904 378.401 374.862 378.378 374.815C378.354 374.767 378.341 374.715 378.34 374.661C378.34 374.608 378.351 374.555 378.374 374.507L379.155 372.658C379.188 372.579 379.191 372.49 379.164 372.408C379.137 372.326 379.083 372.256 379.009 372.211C378.936 372.165 378.849 372.148 378.764 372.16C378.678 372.173 378.6 372.216 378.543 372.281L377.124 373.739C377.09 373.782 377.047 373.817 376.997 373.842C376.947 373.866 376.893 373.878 376.838 373.878C376.783 373.878 376.728 373.866 376.679 373.842C376.629 373.817 376.586 373.782 376.551 373.739L375.393 372.281C375.145 371.968 374.611 372.281 374.703 372.658L375.158 374.507C375.172 374.561 375.174 374.617 375.164 374.672C375.155 374.727 375.134 374.779 375.104 374.826C375.073 374.872 375.033 374.912 374.987 374.942C374.94 374.972 374.888 374.993 374.833 375.002L372.893 375.393C372.476 375.471 372.424 376.057 372.893 376.135L374.768 376.525C374.82 376.535 374.869 376.557 374.912 376.59C374.954 376.623 374.988 376.665 375.011 376.713C375.034 376.761 375.045 376.814 375.043 376.868C375.042 376.921 375.028 376.973 375.002 377.02L374.234 378.869C374.201 378.949 374.198 379.038 374.225 379.12C374.252 379.202 374.307 379.271 374.38 379.317C374.453 379.362 374.541 379.38 374.626 379.367C374.711 379.354 374.789 379.311 374.846 379.247L376.265 377.788C376.302 377.749 376.346 377.717 376.395 377.696C376.444 377.674 376.498 377.663 376.551 377.663C376.605 377.663 376.658 377.674 376.708 377.696C376.757 377.717 376.801 377.749 376.838 377.788L377.997 379.247C378.244 379.559 378.778 379.246 378.674 378.869L378.218 377.02C378.199 376.91 378.223 376.796 378.287 376.704C378.35 376.611 378.447 376.547 378.556 376.525L380.496 376.135C380.848 376.057 380.9 375.471 380.496 375.393Z" fill="#263238"/>
<path d="M392.813 375.393L390.939 375.002C390.886 374.991 390.837 374.969 390.795 374.936C390.753 374.904 390.718 374.862 390.694 374.815C390.671 374.767 390.658 374.715 390.657 374.661C390.657 374.608 390.668 374.555 390.691 374.507L391.472 372.658C391.505 372.579 391.508 372.49 391.481 372.408C391.454 372.326 391.399 372.256 391.326 372.211C391.253 372.165 391.166 372.148 391.08 372.16C390.995 372.173 390.917 372.216 390.86 372.281L389.441 373.739C389.407 373.782 389.364 373.817 389.314 373.842C389.264 373.866 389.21 373.878 389.155 373.878C389.1 373.878 389.045 373.866 388.996 373.842C388.946 373.817 388.902 373.782 388.868 373.739L387.71 372.281C387.462 371.968 386.928 372.281 387.033 372.658L387.488 374.507C387.499 374.562 387.5 374.619 387.489 374.673C387.478 374.728 387.456 374.78 387.424 374.826C387.392 374.873 387.352 374.912 387.305 374.942C387.258 374.972 387.205 374.993 387.15 375.002L385.21 375.393C384.793 375.471 384.741 376.057 385.145 376.135L387.019 376.525C387.072 376.536 387.121 376.558 387.163 376.591C387.205 376.623 387.24 376.665 387.264 376.713C387.287 376.76 387.3 376.813 387.301 376.866C387.301 376.919 387.29 376.972 387.267 377.02L386.486 378.869C386.453 378.949 386.45 379.038 386.477 379.12C386.504 379.202 386.559 379.271 386.632 379.317C386.705 379.362 386.792 379.38 386.878 379.367C386.963 379.354 387.041 379.311 387.098 379.247L388.517 377.788C388.553 377.749 388.598 377.717 388.647 377.696C388.696 377.674 388.749 377.663 388.803 377.663C388.857 377.663 388.91 377.674 388.959 377.696C389.009 377.717 389.053 377.749 389.09 377.788L390.248 379.247C390.496 379.559 391.03 379.246 390.939 378.869L390.483 377.02C390.471 376.966 390.471 376.911 390.481 376.856C390.491 376.802 390.512 376.751 390.542 376.705C390.573 376.659 390.612 376.619 390.657 376.588C390.703 376.558 390.754 376.536 390.808 376.525L392.748 376.135C393.204 376.057 393.204 375.471 392.813 375.393Z" fill="#263238"/>
<path d="M405.13 375.393L403.255 375.002C403.203 374.992 403.154 374.97 403.111 374.937C403.069 374.905 403.035 374.863 403.012 374.814C402.989 374.766 402.978 374.713 402.98 374.66C402.981 374.607 402.996 374.554 403.021 374.507L403.802 372.659C403.827 372.618 403.844 372.572 403.851 372.525C403.858 372.477 403.856 372.429 403.844 372.382C403.833 372.336 403.812 372.292 403.784 372.253C403.755 372.215 403.72 372.182 403.679 372.157C403.638 372.133 403.592 372.116 403.545 372.109C403.497 372.102 403.449 372.104 403.402 372.115C403.356 372.127 403.312 372.147 403.273 372.176C403.235 372.204 403.202 372.24 403.177 372.281L401.771 373.739C401.736 373.783 401.691 373.818 401.64 373.842C401.59 373.866 401.534 373.879 401.478 373.879C401.422 373.879 401.367 373.866 401.316 373.842C401.265 373.818 401.221 373.783 401.185 373.739L400.026 372.281C399.779 371.969 399.245 372.281 399.349 372.659L399.805 374.507C399.817 374.561 399.817 374.617 399.807 374.671C399.797 374.725 399.776 374.777 399.746 374.823C399.715 374.869 399.676 374.908 399.631 374.939C399.585 374.97 399.534 374.991 399.48 375.002L397.54 375.393C397.123 375.471 397.071 376.057 397.475 376.135L399.336 376.526C399.389 376.536 399.438 376.559 399.48 376.591C399.522 376.623 399.557 376.665 399.58 376.713C399.604 376.76 399.617 376.813 399.618 376.866C399.618 376.919 399.607 376.972 399.584 377.02L398.803 378.869C398.753 378.952 398.737 379.051 398.761 379.145C398.784 379.239 398.843 379.32 398.926 379.37C399.009 379.42 399.109 379.436 399.203 379.412C399.297 379.389 399.377 379.33 399.428 379.247L400.834 377.788C400.87 377.749 400.915 377.718 400.964 377.696C401.013 377.675 401.066 377.663 401.12 377.663C401.174 377.663 401.227 377.675 401.276 377.696C401.326 377.718 401.37 377.749 401.407 377.788L402.565 379.247C402.626 379.315 402.708 379.361 402.798 379.376C402.888 379.392 402.981 379.376 403.061 379.332C403.141 379.289 403.204 379.219 403.239 379.135C403.274 379.051 403.28 378.957 403.255 378.869L402.8 377.02C402.78 376.912 402.803 376.8 402.864 376.708C402.924 376.616 403.018 376.551 403.125 376.526L405.065 376.135C405.482 376.057 405.534 375.471 405.13 375.393Z" fill="#263238"/>
<path d="M375.432 348.428H352.308C351.599 348.44 350.918 348.712 350.395 349.192C349.872 349.672 349.543 350.326 349.47 351.032C349.433 351.364 349.467 351.701 349.57 352.019C349.674 352.337 349.844 352.629 350.07 352.875C350.296 353.122 350.571 353.317 350.879 353.449C351.186 353.58 351.518 353.644 351.852 353.636H374.976C375.686 353.624 376.366 353.353 376.889 352.873C377.412 352.393 377.741 351.738 377.814 351.032C377.849 350.7 377.814 350.365 377.709 350.048C377.605 349.731 377.435 349.44 377.209 349.194C376.984 348.948 376.709 348.752 376.403 348.62C376.096 348.488 375.765 348.423 375.432 348.428Z" fill="#263238"/>
<path d="M398.92 348.428H385.496C384.788 348.441 384.109 348.713 383.588 349.193C383.067 349.673 382.741 350.327 382.671 351.032C382.634 351.363 382.668 351.699 382.77 352.016C382.873 352.332 383.042 352.624 383.267 352.87C383.491 353.117 383.765 353.313 384.071 353.445C384.377 353.577 384.707 353.642 385.04 353.636H398.412C399.12 353.624 399.799 353.352 400.32 352.872C400.841 352.392 401.167 351.737 401.237 351.032C401.274 350.705 401.241 350.375 401.142 350.061C401.042 349.748 400.877 349.459 400.659 349.214C400.44 348.968 400.173 348.771 399.873 348.636C399.573 348.501 399.249 348.43 398.92 348.428Z" fill="#263238"/>
<path d="M416.64 466.455C408.467 469.568 401.089 474.46 395.04 480.777C391.367 477.925 386.988 476.125 382.371 475.569L381.759 475.478L381.499 478.55L381.838 478.68C386.901 480.545 391.183 484.069 393.985 488.68L394.428 489.409L394.91 488.628C400.302 480.02 407.911 473.022 416.939 468.369L417.239 468.212L417.408 466.181L416.64 466.455Z" fill="#263238"/>
<path opacity="0.2" d="M300.293 210.104C298.634 213.001 297.613 216.219 297.299 219.543L277.912 441.17H337.908L349.965 394.962L345.993 348.741L358.05 302.533L354.144 256.325L366.201 210.104H300.293Z" fill="black"/>
<path d="M348.871 243.305L360.927 197.084H209.205L197.162 243.305L201.12 289.513L189.076 335.721L193.035 381.942L180.991 428.15H332.7L344.757 381.942L340.785 335.721L352.842 289.513L348.871 243.305Z" fill="#407BFF"/>
<path opacity="0.7" d="M348.871 243.305L360.927 197.084H209.205L197.162 243.305L201.12 289.513L189.076 335.721L193.035 381.942L180.991 428.15H332.7L344.757 381.942L340.785 335.721L352.842 289.513L348.871 243.305Z" fill="white"/>
<path opacity="0.5" d="M348.871 243.305H197.162L209.205 197.084H360.927L348.871 243.305Z" fill="white"/>
<path opacity="0.5" d="M340.785 335.721H189.076L201.12 289.513H352.842L340.785 335.721Z" fill="white"/>
<path opacity="0.5" d="M332.7 428.15H180.978L193.035 381.942H344.757L332.7 428.15Z" fill="white"/>
<path opacity="0.2" d="M328.573 262.613C327.016 263.063 325.402 263.283 323.781 263.264C321.584 263.362 319.397 262.914 317.415 261.962C317.056 261.75 316.647 261.637 316.23 261.637C315.847 261.642 315.472 261.74 315.136 261.923H315.058C314.476 262.25 313.855 262.499 313.209 262.665C311.752 263.05 310.25 263.238 308.743 263.225C308.288 263.225 307.845 263.225 307.441 263.225C306.272 263.15 305.115 262.945 303.991 262.613C303.826 262.564 303.655 262.534 303.483 262.522C303.197 262.499 302.909 262.535 302.637 262.628C302.365 262.722 302.116 262.87 301.904 263.065C301.693 263.259 301.524 263.495 301.408 263.758C301.292 264.021 301.232 264.305 301.231 264.592V265.999H242.172C241.087 265.999 240.012 266.212 239.01 266.628C238.008 267.044 237.097 267.653 236.33 268.421C235.564 269.189 234.956 270.1 234.542 271.103C234.128 272.106 233.916 273.181 233.917 274.266V282.586C233.914 283.672 234.125 284.748 234.538 285.753C234.952 286.757 235.559 287.671 236.326 288.44C237.093 289.209 238.004 289.819 239.007 290.236C240.01 290.652 241.086 290.867 242.172 290.867H309.264H309.707C310.423 291.466 311.178 292.065 311.985 292.677C312.792 293.288 313.938 294.135 314.993 294.89C315.353 295.15 315.786 295.291 316.23 295.291C316.674 295.291 317.107 295.15 317.467 294.89C325.904 288.771 331.32 284.552 331.32 272.964V264.631C331.324 264.298 331.249 263.969 331.1 263.671C330.951 263.372 330.733 263.114 330.465 262.916C330.196 262.719 329.885 262.589 329.555 262.536C329.226 262.483 328.89 262.51 328.573 262.613Z" fill="black"/>
<path d="M307.975 261.429H240.896C236.33 261.429 232.628 265.13 232.628 269.696V278.016C232.628 282.582 236.33 286.284 240.896 286.284H307.975C312.541 286.284 316.243 282.582 316.243 278.016V269.696C316.243 265.13 312.541 261.429 307.975 261.429Z" fill="#407BFF"/>
<path d="M322.492 258.681C320.296 258.775 318.109 258.328 316.126 257.379C315.773 257.163 315.368 257.048 314.954 257.048C314.54 257.048 314.135 257.163 313.782 257.379C311.794 258.33 309.603 258.777 307.402 258.681C305.782 258.699 304.168 258.479 302.611 258.03C302.297 257.925 301.963 257.896 301.636 257.945C301.308 257.994 300.998 258.121 300.729 258.315C300.461 258.508 300.242 258.763 300.092 259.057C299.941 259.352 299.863 259.678 299.864 260.009V268.342C299.864 279.943 305.28 284.161 313.717 290.281C314.077 290.541 314.51 290.682 314.954 290.682C315.398 290.682 315.831 290.541 316.191 290.281C324.628 284.161 330.044 279.943 330.044 268.342V260.009C330.043 259.678 329.963 259.351 329.81 259.057C329.658 258.762 329.439 258.508 329.169 258.315C328.9 258.122 328.589 257.995 328.261 257.946C327.933 257.896 327.598 257.925 327.284 258.03C325.727 258.48 324.113 258.699 322.492 258.681Z" fill="#407BFF"/>
<path opacity="0.3" d="M322.492 258.681C320.296 258.775 318.109 258.328 316.126 257.379C315.773 257.163 315.368 257.048 314.954 257.048C314.54 257.048 314.135 257.163 313.782 257.379C311.794 258.33 309.603 258.777 307.402 258.681C305.782 258.699 304.168 258.479 302.611 258.03C302.297 257.925 301.963 257.896 301.636 257.945C301.308 257.994 300.998 258.121 300.729 258.315C300.461 258.508 300.242 258.763 300.092 259.057C299.941 259.352 299.863 259.678 299.864 260.009V268.342C299.864 279.943 305.28 284.161 313.717 290.281C314.077 290.541 314.51 290.682 314.954 290.682C315.398 290.682 315.831 290.541 316.191 290.281C324.628 284.161 330.044 279.943 330.044 268.342V260.009C330.043 259.678 329.963 259.351 329.81 259.057C329.658 258.762 329.439 258.508 329.169 258.315C328.9 258.122 328.589 257.995 328.261 257.946C327.933 257.896 327.598 257.925 327.284 258.03C325.727 258.48 324.113 258.699 322.492 258.681Z" fill="white"/>
<path opacity="0.2" d="M313.782 257.353C311.794 258.304 309.603 258.751 307.402 258.655C305.782 258.672 304.168 258.452 302.611 258.004C302.297 257.899 301.963 257.87 301.636 257.919C301.308 257.968 300.998 258.095 300.729 258.289C300.461 258.482 300.242 258.737 300.092 259.031C299.941 259.326 299.863 259.652 299.864 259.983V268.316C299.864 279.917 305.28 284.135 313.717 290.255C314.095 290.529 314.552 290.671 315.019 290.658V257.015C314.583 257.006 314.153 257.124 313.782 257.353Z" fill="white"/>
<path d="M327.049 266.077C321.974 268.065 317.454 271.25 313.873 275.36C311.376 273.519 308.449 272.349 305.371 271.962H304.967V273.954L305.189 274.032C308.612 275.267 311.562 277.544 313.626 280.542L313.951 281.011L314.225 280.503C317.218 274.94 321.776 270.377 327.336 267.379L327.531 267.288V265.986L327.049 266.077Z" fill="#263238"/>
<path d="M358.245 210.091H352.49C351.75 210.104 351.015 209.96 350.335 209.667C349.655 209.375 349.045 208.94 348.546 208.393C348.047 207.846 347.67 207.199 347.441 206.495C347.212 205.791 347.136 205.046 347.217 204.31L347.725 198.555C347.881 196.99 348.607 195.536 349.763 194.471C350.92 193.405 352.428 192.801 354.001 192.774H359.756C360.497 192.758 361.233 192.901 361.915 193.193C362.597 193.485 363.208 193.919 363.709 194.466C364.209 195.014 364.587 195.662 364.817 196.367C365.047 197.072 365.123 197.818 365.042 198.555L364.534 204.31C364.359 205.87 363.626 207.314 362.47 208.376C361.315 209.438 359.814 210.047 358.245 210.091Z" fill="#407BFF"/>
<path d="M360.641 198.542L359.391 197.162L356.24 200.052L353.61 197.162L352.113 198.542L354.756 201.432L351.618 204.323L352.868 205.69L356.006 202.799L358.649 205.69L360.133 204.323L357.49 201.432L360.641 198.542Z" fill="white"/>
<path d="M229.634 259.736C232.967 263.369 236.144 267.131 239.308 270.92C242.471 274.709 245.531 278.576 248.578 282.456C248.708 282.625 248.656 282.56 248.682 282.612C248.708 282.664 248.682 282.677 248.682 282.69C248.705 282.738 248.736 282.783 248.773 282.82C248.884 282.978 249.025 283.112 249.188 283.215C249.352 283.318 249.533 283.387 249.724 283.419C249.87 283.439 250.019 283.439 250.166 283.419C250.244 283.425 250.323 283.425 250.401 283.419H250.518C250.583 283.419 250.518 283.419 250.726 283.341L253.981 281.57C258.356 279.253 262.77 276.987 267.327 274.956L271.141 279.683C267.47 283.055 263.642 287.286 259.775 290.385L256.859 292.677C256.677 292.824 256.486 292.959 256.286 293.08C256.065 293.237 255.834 293.381 255.596 293.51C255.124 293.781 254.637 294.025 254.137 294.239C253.129 294.663 252.07 294.956 250.987 295.111C248.796 295.433 246.56 295.209 244.477 294.46C243.417 294.084 242.41 293.572 241.482 292.937C241.013 292.624 240.571 292.26 240.18 291.908C239.959 291.726 239.776 291.518 239.568 291.322L239.047 290.802C235.597 287.26 232.199 283.693 228.866 280.06C225.532 276.428 222.238 272.769 219.088 268.967L229.634 259.736Z" fill="#B55B52"/>
<path d="M265.608 277.821L268.642 268.069L276.636 272.053C276.636 272.053 275.464 279.162 269.657 280.399L265.608 277.821Z" fill="#B55B52"/>
<path d="M271.832 265.374L279.045 267.353L276.623 272.053L268.629 268.069L271.832 265.374Z" fill="#B55B52"/>
<path d="M187.605 262.392C186.746 266.532 185.678 270.634 184.572 274.722C183.465 278.81 182.254 282.859 180.991 286.909L180.522 288.432L180.288 289.187C180.256 289.296 180.213 289.401 180.158 289.5C180.009 289.918 179.926 290.358 179.91 290.802C179.883 291.748 180.146 292.679 180.666 293.471C180.922 293.818 181.205 294.144 181.512 294.447L182.592 295.632L184.728 298.015C186.121 299.629 187.527 301.244 188.855 302.936L184.311 308.144C182.436 307.077 180.639 305.918 178.843 304.772L176.174 303.001L174.872 302.103C174.429 301.791 174.064 301.582 173.348 300.996C170.801 298.825 169.043 295.873 168.349 292.598C167.999 290.929 167.916 289.216 168.101 287.521C168.101 287.104 168.231 286.635 168.297 286.219L168.44 285.437L168.713 283.875C169.442 279.696 170.223 275.529 171.096 271.389C171.968 267.248 172.906 263.121 174.012 259.046L187.605 262.392Z" fill="#B55B52"/>
<path d="M184.402 302.52L189.767 299.772L192.136 308.886C192.136 308.886 187.827 310.54 184.493 308.418L184.402 302.52Z" fill="#B55B52"/>
<path d="M197.188 296.843L197.435 305.228L191.433 309.147L189.35 299.942L197.188 296.843Z" fill="#B55B52"/>
<path d="M214.752 219.348C214.882 219.986 215.338 220.442 215.754 220.363C216.171 220.285 216.418 219.686 216.288 219.061C216.158 218.437 215.702 217.968 215.286 218.046C214.869 218.124 214.622 218.736 214.752 219.348Z" fill="#263238"/>
<path d="M215.273 220.455C216.445 222.271 217.86 223.918 219.478 225.35C219.101 225.756 218.641 226.075 218.128 226.284C217.615 226.493 217.063 226.588 216.51 226.561L215.273 220.455Z" fill="#A02724"/>
<path d="M211.666 216.249C211.591 216.248 211.518 216.226 211.455 216.184C211.393 216.143 211.343 216.085 211.313 216.016C211.283 215.947 211.273 215.871 211.285 215.797C211.297 215.723 211.33 215.654 211.38 215.598C211.787 215.137 212.298 214.779 212.871 214.552C213.443 214.326 214.061 214.238 214.674 214.296C214.724 214.306 214.772 214.325 214.815 214.353C214.858 214.381 214.895 214.417 214.924 214.459C214.953 214.502 214.974 214.549 214.984 214.599C214.995 214.65 214.996 214.701 214.986 214.752C214.978 214.802 214.961 214.85 214.934 214.892C214.907 214.935 214.872 214.973 214.831 215.002C214.79 215.031 214.743 215.051 214.694 215.062C214.644 215.073 214.593 215.074 214.544 215.064C214.058 215.018 213.568 215.088 213.115 215.269C212.662 215.45 212.259 215.737 211.94 216.106C211.87 216.187 211.772 216.238 211.666 216.249Z" fill="#263238"/>
<path d="M195.977 228.423C197.409 234.399 198.854 245.349 193.725 249.32C193.725 249.32 195.73 255.387 209.349 255.387C224.322 255.387 216.51 251.481 216.51 251.481C208.333 249.893 208.541 242.797 210 238.149L195.977 228.423Z" fill="#B55B52"/>
<path d="M192.123 250.427C191.238 248.773 190.248 246.872 192.279 246.273C194.519 245.622 208.88 244.411 213.111 245.635C211.809 247.94 214.01 250.843 214.01 250.843L192.123 250.427Z" fill="#263238"/>
<path d="M204.023 529.81H213.411L214.348 510.905H204.948L204.023 529.81Z" fill="#B55B52"/>
<path d="M144.405 527.206L153.922 527.714L159.703 509.082L150.186 508.574L144.405 527.206Z" fill="#B55B52"/>
<path d="M153.636 526.959L144.665 525.018C144.508 524.983 144.344 525.002 144.199 525.073C144.054 525.144 143.939 525.263 143.871 525.409L140.759 532.167C140.683 532.331 140.645 532.51 140.648 532.691C140.652 532.872 140.697 533.05 140.78 533.211C140.863 533.372 140.981 533.511 141.127 533.619C141.272 533.727 141.44 533.8 141.619 533.833C144.756 534.458 146.319 534.601 150.264 535.461C152.686 535.981 158.167 537.322 161.513 538.065C164.859 538.807 166.018 535.578 164.716 534.979C158.857 532.31 156.409 529.953 154.821 527.753C154.536 527.353 154.114 527.07 153.636 526.959Z" fill="#263238"/>
<path d="M212.916 528.859H203.997C203.836 528.861 203.68 528.918 203.555 529.019C203.43 529.121 203.342 529.262 203.307 529.419L201.693 536.671C201.651 536.847 201.65 537.03 201.69 537.206C201.73 537.382 201.809 537.546 201.922 537.687C202.035 537.828 202.179 537.941 202.342 538.017C202.505 538.094 202.684 538.132 202.865 538.129C206.081 538.129 210.677 537.882 214.778 537.882C219.504 537.882 223.579 538.143 229.1 538.143C232.446 538.143 233.384 534.757 231.977 534.445C225.585 533.052 220.377 532.895 214.856 529.497C214.279 529.113 213.609 528.892 212.916 528.859Z" fill="#263238"/>
<path d="M176.707 252.08C169.625 255.452 167.698 275.894 167.698 275.894L185.236 283.992C188.2 278.992 189.815 273.308 189.923 267.496C190.274 256.937 183.96 248.682 176.707 252.08Z" fill="#263238"/>
<path opacity="0.4" d="M186.186 264.684C183.022 269.605 183.322 277.209 184.415 283.628L185.197 283.992C188.158 278.991 189.773 273.307 189.884 267.496C189.884 266.871 189.884 266.194 189.884 265.634L186.186 264.684Z" fill="black"/>
<path d="M225.65 251.585C225.65 251.585 234.347 261.403 226.131 322.154H182.475C182.176 315.449 186.381 282.755 179.871 251.169C184.696 250.241 189.576 249.623 194.48 249.32C200.664 248.968 206.862 248.968 213.046 249.32C217.299 249.751 221.513 250.508 225.65 251.585Z" fill="#407BFF"/>
<path opacity="0.6" d="M225.65 251.585C225.65 251.585 234.347 261.403 226.131 322.154H182.475C182.176 315.449 186.381 282.755 179.871 251.169C184.696 250.241 189.576 249.623 194.48 249.32C200.664 248.968 206.862 248.968 213.046 249.32C217.299 249.751 221.513 250.508 225.65 251.585Z" fill="#FAFAFA"/>
<path opacity="0.2" d="M229.465 270.152L229.308 270.009L220.624 265.374C219.739 278.745 225.715 287.13 229.269 290.789C229.715 283.919 229.78 277.029 229.465 270.152Z" fill="black"/>
<path opacity="0.2" d="M214.348 510.905L213.867 520.657H204.466L204.948 510.905H214.348Z" fill="black"/>
<path opacity="0.2" d="M150.186 508.587L159.703 509.082L156.722 518.691L147.204 518.183L150.186 508.587Z" fill="black"/>
<path d="M192.956 222.356C195.053 230.168 195.886 234.868 200.768 238.123C208.034 243.018 217.069 237.394 217.356 229.1C217.603 221.639 214.14 210.091 205.742 208.515C203.888 208.148 201.971 208.263 200.174 208.848C198.376 209.434 196.759 210.47 195.477 211.858C194.194 213.246 193.289 214.94 192.848 216.778C192.407 218.616 192.444 220.536 192.956 222.356Z" fill="#B55B52"/>
<path d="M210.651 322.154C210.651 322.154 201.38 384.533 196.329 407.917C190.73 433.566 160.862 518.196 160.862 518.196L146.241 515.032C146.241 515.032 164.976 446.026 169.677 410.247C171.499 396.277 173.7 373.791 176.486 355.003C179.181 336.775 182.501 322.167 182.501 322.167L210.651 322.154Z" fill="#263238"/>
<path d="M164.364 513.313L161.63 518.6L145.199 515.032L146.579 510.098L164.364 513.313Z" fill="#407BFF"/>
<path opacity="0.6" d="M164.364 513.313L161.63 518.6L145.199 515.032L146.579 510.098L164.364 513.313Z" fill="white"/>
<path opacity="0.6" d="M204.792 344.379C194.076 346.475 195.209 386.434 196.498 406.979C199.597 392.449 204.115 364.508 207.2 344.665C206.454 344.298 205.604 344.197 204.792 344.379Z" fill="black"/>
<path d="M226.131 322.154C226.131 322.154 230.493 383.192 229.608 408.086C228.683 433.983 216.405 518.756 216.405 518.756H202.578C202.578 518.756 202.07 435.428 201.458 410.052C200.781 382.319 197.435 322.141 197.435 322.141L226.131 322.154Z" fill="#263238"/>
<path d="M219.062 513.261C219.127 513.261 218.28 519.003 218.28 519.003H201.458L201.003 513.873L219.062 513.261Z" fill="#407BFF"/>
<path opacity="0.6" d="M219.062 513.261C219.127 513.261 218.28 519.003 218.28 519.003H201.458L201.003 513.873L219.062 513.261Z" fill="white"/>
<path d="M220.559 263.004C220.559 279.383 229.269 286.128 229.269 286.128L243.474 272.3C240.112 266.681 236.283 261.355 232.029 256.377C223.814 246.963 220.559 252.484 220.559 263.004Z" fill="#263238"/>
<path opacity="0.2" d="M216.809 232.068C216.519 232.889 216.033 233.627 215.394 234.217C214.754 234.807 213.979 235.232 213.137 235.454C212.212 235.643 211.371 236.124 210.741 236.828C210.11 237.531 209.722 238.419 209.635 239.36C211.321 238.796 212.85 237.842 214.096 236.574C215.343 235.307 216.273 233.763 216.809 232.068Z" fill="black"/>
<path d="M213.137 206.797C216.054 203.112 211.562 202.891 211.562 202.891C212.734 198.503 207.474 200.86 207.474 200.86C204.323 196.511 202.539 201.81 202.539 201.81C199.271 198.125 198.633 204.141 198.633 204.141C195.352 199.466 193.686 206.211 193.686 206.211C190.665 201.354 188.816 207.669 188.816 207.669C182.579 205.443 185.535 211.927 185.535 211.927C180.223 212.07 184.493 216.197 184.493 216.197C178.114 216.197 183.738 219.856 183.738 219.856C178.673 223.176 185.04 224.074 185.04 224.074C180.913 230.584 188.009 228.136 188.009 228.136C185.131 234.542 191.498 231.717 191.498 231.717C191.095 237.888 194.649 236.209 196.368 235.063C196.693 236.365 197.318 237.667 198.464 237.771C200.69 238.071 201.068 233.865 201.068 233.865C201.068 233.865 203.125 235.48 204.857 234.607C206.588 233.735 205.937 231.535 205.937 231.535C206.313 231.816 206.77 231.968 207.239 231.968C207.709 231.968 208.165 231.816 208.541 231.535C209.283 230.962 209.284 226.821 208.346 225.363L211.731 224.061C211.731 224.061 214.244 223.71 213.124 220.39C212.449 218.481 212.39 216.409 212.955 214.465C216.783 212.669 213.632 210.559 213.632 210.559C218.072 207.708 213.137 206.797 213.137 206.797Z" fill="#263238"/>
<path d="M206.276 222.642C206.806 224.584 207.964 226.297 209.57 227.512C211.692 229.1 213.281 227.512 213.124 225.129C212.994 222.968 211.718 219.543 209.375 218.892C207.031 218.241 205.716 220.337 206.276 222.642Z" fill="#B55B52"/>
</svg>
