<svg width="20" height="20" viewBox="0 0 20 20" fill="none" xmlns="http://www.w3.org/2000/svg">
<path d="M10 13.75C10.208 13.75 10.385 13.677 10.531 13.531C10.677 13.385 10.75 13.208 10.75 13C10.75 12.792 10.677 12.615 10.531 12.469C10.385 12.323 10.208 12.25 10 12.25C9.792 12.25 9.615 12.323 9.469 12.469C9.323 12.615 9.25 12.792 9.25 13C9.25 13.208 9.323 13.385 9.469 13.531C9.615 13.677 9.792 13.75 10 13.75ZM9.25 11H10.75V6H9.25V11ZM7.104 17L3 12.875V7.104L7.104 3H12.896L17 7.104V12.896L12.875 17H7.104ZM7.729 15.5H12.271L15.5 12.271V7.729L12.25 4.5H7.729L4.5 7.729V12.271L7.729 15.5Z" fill="#202124"/>
</svg>
