<svg width="20" height="20" viewBox="0 0 20 20" fill="none" xmlns="http://www.w3.org/2000/svg">
<path d="M7.21368 4.79675C7.06291 4.94753 6.97055 5.15705 6.97085 5.38716L6.97085 5.48844C6.97085 5.94924 7.34388 6.32227 7.80409 6.32168L12.357 6.32168L4.65526 14.0234C4.32999 14.3487 4.32999 14.8767 4.65526 15.2019C4.98053 15.5272 5.5085 15.5272 5.83377 15.2019L13.5355 7.50019V12.0531C13.5355 12.5139 13.9086 12.8869 14.3688 12.8864H14.47C14.9308 12.8864 15.3039 12.5133 15.3033 12.0531V5.38716C15.3033 4.92636 14.9303 4.55333 14.47 4.55391L7.80409 4.55391C7.57369 4.55391 7.36446 4.64598 7.21368 4.79675Z" fill="#34C759"/>
</svg>
