<svg width="20" height="20" viewBox="0 0 20 20" fill="none" xmlns="http://www.w3.org/2000/svg">
<path d="M7.2137 4.79675C7.06292 4.94753 6.97057 5.15705 6.97086 5.38716L6.97086 5.48844C6.97086 5.94924 7.3439 6.32227 7.80411 6.32168L12.357 6.32168L4.65527 14.0234C4.33 14.3487 4.33 14.8767 4.65527 15.2019C4.98054 15.5272 5.50851 15.5272 5.83378 15.2019L13.5355 7.50019V12.0531C13.5355 12.5139 13.9086 12.8869 14.3688 12.8864H14.4701C14.9309 12.8864 15.3039 12.5133 15.3033 12.0531V5.38716C15.3033 4.92636 14.9303 4.55333 14.4701 4.55391L7.80411 4.55391C7.57371 4.55391 7.36448 4.64598 7.2137 4.79675Z" fill="#34C759"/>
</svg>
