<svg width="24" height="25" viewBox="0 0 24 25" fill="none" xmlns="http://www.w3.org/2000/svg">
<path fill-rule="evenodd" clip-rule="evenodd" d="M6.85002 8.4999C6.85002 6.76021 8.26033 5.3499 10 5.3499C11.7397 5.3499 13.15 6.76021 13.15 8.4999C13.15 10.2396 11.7397 11.6499 10 11.6499C8.26033 11.6499 6.85002 10.2396 6.85002 8.4999ZM10 3.6499C7.32144 3.6499 5.15002 5.82132 5.15002 8.4999C5.15002 11.1785 7.32144 13.3499 10 13.3499C12.6786 13.3499 14.85 11.1785 14.85 8.4999C14.85 5.82132 12.6786 3.6499 10 3.6499ZM4.85002 18.4166C4.85002 18.0136 5.17867 17.4978 6.21839 17.0387C7.20792 16.6017 8.58426 16.3499 10 16.3499C11.3957 16.3499 12.7709 16.643 13.7679 17.1046C14.2669 17.3356 14.6328 17.5911 14.863 17.8377C15.0846 18.0752 15.1477 18.2655 15.15 18.4084C15.1419 18.4299 15.1051 18.498 14.9627 18.6087C14.7443 18.7785 14.3797 18.9615 13.865 19.1269C12.8446 19.4548 11.4363 19.6499 10 19.6499C8.30152 19.6499 6.90338 19.452 5.96133 19.1315C5.48766 18.9703 5.18108 18.7954 5.00771 18.6424C4.84896 18.5023 4.84988 18.4285 4.85002 18.4173L4.85002 18.4166ZM15.1519 18.4009C15.1521 18.401 15.1519 18.4029 15.1506 18.4067C15.1511 18.4028 15.1517 18.4009 15.1519 18.4009ZM10 14.6499C8.41579 14.6499 6.79212 14.9269 5.53166 15.4836C4.32137 16.018 3.15002 16.9606 3.15002 18.4166C3.15002 19.0455 3.46758 19.5506 3.88296 19.9171C4.28772 20.2743 4.82489 20.5405 5.41372 20.7409C6.59666 21.1434 8.19852 21.3499 10 21.3499C11.5637 21.3499 13.1555 21.1406 14.3851 20.7454C14.9953 20.5493 15.5683 20.2912 16.0061 19.9509C16.4404 19.6133 16.85 19.1033 16.85 18.4166C16.85 17.727 16.5361 17.1388 16.1058 16.6777C15.6797 16.2212 15.1082 15.8517 14.4821 15.5619C13.2291 14.9818 11.6043 14.6499 10 14.6499ZM16.1539 12.4184C16.199 11.9511 16.6143 11.6088 17.0816 11.6538C18.2957 11.7708 19.4222 12.0864 20.2734 12.5787C21.0978 13.0554 21.85 13.8199 21.85 14.8732C21.85 15.4191 21.6411 15.9169 21.2349 16.3125C20.852 16.6854 20.3292 16.9348 19.7319 17.1042C19.2802 17.2322 18.8103 16.9699 18.6823 16.5182C18.5542 16.0666 18.8165 15.5967 19.2682 15.4686C19.7158 15.3417 19.943 15.1977 20.0488 15.0946C20.1314 15.0142 20.15 14.9535 20.15 14.8732C20.15 14.7165 20.0328 14.4033 19.4224 14.0503C18.8389 13.7129 17.9654 13.4469 16.9185 13.346C16.4512 13.301 16.1089 12.8856 16.1539 12.4184ZM18 3.6499C17.5306 3.6499 17.15 4.03046 17.15 4.4999C17.15 4.96934 17.5306 5.3499 18 5.3499C18.9113 5.3499 19.65 6.08863 19.65 6.9999C19.65 7.91117 18.9113 8.6499 18 8.6499C17.5306 8.6499 17.15 9.03046 17.15 9.4999C17.15 9.96934 17.5306 10.3499 18 10.3499C19.8502 10.3499 21.35 8.85006 21.35 6.9999C21.35 5.14975 19.8502 3.6499 18 3.6499Z" fill="#347AE2"/>
</svg>
