<svg width="27" height="27" viewBox="0 0 27 27" fill="none" xmlns="http://www.w3.org/2000/svg">
<path d="M3.99011 10.2375V16.5217C3.99011 18.8306 3.99011 18.8306 6.16833 20.3009L12.1584 23.7643C13.0624 24.287 14.5327 24.287 15.4258 23.7643L21.4159 20.3009C23.5941 18.8306 23.5941 18.8306 23.5941 16.5326V10.2375C23.5941 7.93951 23.5941 7.93951 21.4159 6.46922L15.4258 3.00585C14.5327 2.48308 13.0624 2.48308 12.1584 3.00585L6.16833 6.46922C3.99011 7.93951 3.99011 7.93951 3.99011 10.2375Z" stroke="#8B8C91" stroke-width="1.63366" stroke-linecap="round" stroke-linejoin="round"/>
<path d="M13.7921 16.6523C15.5966 16.6523 17.0594 15.1895 17.0594 13.385C17.0594 11.5805 15.5966 10.1177 13.7921 10.1177C11.9876 10.1177 10.5248 11.5805 10.5248 13.385C10.5248 15.1895 11.9876 16.6523 13.7921 16.6523Z" stroke="#8B8C91" stroke-width="1.63366" stroke-linecap="round" stroke-linejoin="round"/>
</svg>
