<svg width="21" height="21" viewBox="0 0 21 21" fill="none" xmlns="http://www.w3.org/2000/svg">
<path d="M8.28089 9.84834C8.19849 9.8401 8.09961 9.8401 8.00897 9.84834C6.04781 9.78241 4.49042 8.17558 4.49042 6.19794C4.49042 4.1791 6.12197 2.53931 8.14905 2.53931C10.1679 2.53931 11.8077 4.1791 11.8077 6.19794C11.7994 8.17558 10.2421 9.78241 8.28089 9.84834Z" stroke="url(#paint0_linear_12_86)" stroke-width="1.85404" stroke-linecap="round" stroke-linejoin="round"/>
<path d="M14.255 4.1875C15.8536 4.1875 17.1391 5.48121 17.1391 7.07156C17.1391 8.62895 15.903 9.89794 14.3621 9.95562C14.2962 9.94738 14.222 9.94738 14.1479 9.95562" stroke="url(#paint1_linear_12_86)" stroke-width="1.85404" stroke-linecap="round" stroke-linejoin="round"/>
<path d="M4.16087 12.8893C2.16675 14.2242 2.16675 16.3996 4.16087 17.7262C6.42692 19.2424 10.1432 19.2424 12.4093 17.7262C14.4034 16.3913 14.4034 14.2159 12.4093 12.8893C10.1515 11.3813 6.43516 11.3813 4.16087 12.8893Z" stroke="url(#paint2_linear_12_86)" stroke-width="1.85404" stroke-linecap="round" stroke-linejoin="round"/>
<path d="M15.8454 17.3716C16.4387 17.248 16.999 17.009 17.4605 16.6547C18.7459 15.6906 18.7459 14.1002 17.4605 13.1361C17.0073 12.7901 16.4552 12.5593 15.8701 12.4275" stroke="url(#paint3_linear_12_86)" stroke-width="1.85404" stroke-linecap="round" stroke-linejoin="round"/>
<defs>
<linearGradient id="paint0_linear_12_86" x1="8.14905" y1="2.53931" x2="8.14905" y2="9.84834" gradientUnits="userSpaceOnUse">
<stop stop-color="#000102"/>
<stop offset="1" stop-color="#2F5062"/>
</linearGradient>
<linearGradient id="paint1_linear_12_86" x1="15.6435" y1="4.1875" x2="15.6435" y2="9.95562" gradientUnits="userSpaceOnUse">
<stop stop-color="#000102"/>
<stop offset="1" stop-color="#2F5062"/>
</linearGradient>
<linearGradient id="paint2_linear_12_86" x1="8.28508" y1="11.7583" x2="8.28508" y2="18.8634" gradientUnits="userSpaceOnUse">
<stop stop-color="#000102"/>
<stop offset="1" stop-color="#2F5062"/>
</linearGradient>
<linearGradient id="paint3_linear_12_86" x1="17.135" y1="12.4275" x2="17.135" y2="17.3716" gradientUnits="userSpaceOnUse">
<stop stop-color="#000102"/>
<stop offset="1" stop-color="#2F5062"/>
</linearGradient>
</defs>
</svg>
