<svg width="21" height="21" viewBox="0 0 21 21" fill="none" xmlns="http://www.w3.org/2000/svg">
<path d="M18.5319 9.39497V3.59715C18.5319 2.31821 17.9863 1.80664 16.6306 1.80664H13.186C11.8303 1.80664 11.2847 2.31821 11.2847 3.59715V9.39497C11.2847 10.6739 11.8303 11.1855 13.186 11.1855H16.6306C17.9863 11.1855 18.5319 10.6739 18.5319 9.39497Z" fill="white"/>
<path d="M9.57943 11.271V17.0688C9.57943 18.3477 9.03376 18.8593 7.67809 18.8593H4.2335C2.87783 18.8593 2.33215 18.3477 2.33215 17.0688V11.271C2.33215 9.99204 2.87783 9.48047 4.2335 9.48047H7.67809C9.03376 9.48047 9.57943 9.99204 9.57943 11.271Z" fill="white"/>
<path d="M18.5319 17.0687V14.6814C18.5319 13.4024 17.9863 12.8909 16.6306 12.8909H13.186C11.8303 12.8909 11.2847 13.4024 11.2847 14.6814V17.0687C11.2847 18.3476 11.8303 18.8592 13.186 18.8592H16.6306C17.9863 18.8592 18.5319 18.3476 18.5319 17.0687Z" fill="white"/>
<path d="M9.57943 5.98448V3.59715C9.57943 2.31821 9.03376 1.80664 7.67809 1.80664H4.2335C2.87783 1.80664 2.33215 2.31821 2.33215 3.59715V5.98448C2.33215 7.26342 2.87783 7.77499 4.2335 7.77499H7.67809C9.03376 7.77499 9.57943 7.26342 9.57943 5.98448Z" fill="white"/>
</svg>
