<svg width="23" height="23" viewBox="0 0 23 23" fill="none" xmlns="http://www.w3.org/2000/svg">
<path d="M19.8526 10.2869V4.00793C19.8526 2.62287 19.2616 2.06885 17.7935 2.06885H14.063C12.5949 2.06885 12.0039 2.62287 12.0039 4.00793V10.2869C12.0039 11.6719 12.5949 12.226 14.063 12.226H17.7935C19.2616 12.226 19.8526 11.6719 19.8526 10.2869Z" fill="white"/>
<path d="M10.1572 12.3185V18.5974C10.1572 19.9825 9.5662 20.5365 8.09803 20.5365H4.3676C2.89943 20.5365 2.30847 19.9825 2.30847 18.5974V12.3185C2.30847 10.9334 2.89943 10.3794 4.3676 10.3794H8.09803C9.5662 10.3794 10.1572 10.9334 10.1572 12.3185Z" fill="white"/>
<path d="M19.8526 18.5973V16.0118C19.8526 14.6268 19.2616 14.0728 17.7935 14.0728H14.063C12.5949 14.0728 12.0039 14.6268 12.0039 16.0118V18.5973C12.0039 19.9824 12.5949 20.5364 14.063 20.5364H17.7935C19.2616 20.5364 19.8526 19.9824 19.8526 18.5973Z" fill="white"/>
<path d="M10.1572 6.59339V4.00793C10.1572 2.62287 9.5662 2.06885 8.09803 2.06885H4.3676C2.89943 2.06885 2.30847 2.62287 2.30847 4.00793V6.59339C2.30847 7.97845 2.89943 8.53247 4.3676 8.53247H8.09803C9.5662 8.53247 10.1572 7.97845 10.1572 6.59339Z" fill="white"/>
</svg>
