<svg width="25" height="26" viewBox="0 0 25 26" fill="none" xmlns="http://www.w3.org/2000/svg">
<path d="M9.15251 23.0853H15.1864C20.2147 23.0853 22.226 21.074 22.226 16.0457V10.0118C22.226 4.98348 20.2147 2.97217 15.1864 2.97217H9.15251C4.12423 2.97217 2.11292 4.98348 2.11292 10.0118V16.0457C2.11292 21.074 4.12423 23.0853 9.15251 23.0853Z" stroke="#8B8C91" stroke-width="1.50848" stroke-linecap="round" stroke-linejoin="round"/>
<path d="M15.6893 19.5657C16.7955 19.5657 17.7006 18.6606 17.7006 17.5544V8.5035C17.7006 7.39728 16.7955 6.49219 15.6893 6.49219C14.5831 6.49219 13.678 7.39728 13.678 8.5035V17.5544C13.678 18.6606 14.573 19.5657 15.6893 19.5657Z" stroke="#8B8C91" stroke-width="1.50848" stroke-linecap="round" stroke-linejoin="round"/>
<path d="M8.64962 19.5659C9.75584 19.5659 10.6609 18.6608 10.6609 17.5545V14.0347C10.6609 12.9285 9.75584 12.0234 8.64962 12.0234C7.5434 12.0234 6.63831 12.9285 6.63831 14.0347V17.5545C6.63831 18.6608 7.53334 19.5659 8.64962 19.5659Z" stroke="#8B8C91" stroke-width="1.50848" stroke-linecap="round" stroke-linejoin="round"/>
</svg>
