<svg width="23" height="24" viewBox="0 0 23 24" fill="none" xmlns="http://www.w3.org/2000/svg">
<path d="M9.0332 21.2751H14.5735C19.1903 21.2751 21.0371 19.4284 21.0371 14.8115V9.27124C21.0371 4.65437 19.1903 2.80762 14.5735 2.80762H9.0332C4.41633 2.80762 2.56958 4.65437 2.56958 9.27124V14.8115C2.56958 19.4284 4.41633 21.2751 9.0332 21.2751Z" stroke="#8B8C91" stroke-width="1.38506" stroke-linecap="round" stroke-linejoin="round"/>
<path d="M15.0351 18.0434C16.0508 18.0434 16.8819 17.2124 16.8819 16.1967V7.8863C16.8819 6.87059 16.0508 6.03955 15.0351 6.03955C14.0194 6.03955 13.1884 6.87059 13.1884 7.8863V16.1967C13.1884 17.2124 14.0102 18.0434 15.0351 18.0434Z" stroke="#8B8C91" stroke-width="1.38506" stroke-linecap="round" stroke-linejoin="round"/>
<path d="M8.57148 18.0435C9.58719 18.0435 10.4182 17.2124 10.4182 16.1967V12.9649C10.4182 11.9492 9.58719 11.1182 8.57148 11.1182C7.55577 11.1182 6.72473 11.9492 6.72473 12.9649V16.1967C6.72473 17.2124 7.54654 18.0435 8.57148 18.0435Z" stroke="#8B8C91" stroke-width="1.38506" stroke-linecap="round" stroke-linejoin="round"/>
</svg>
