<svg width="25" height="25" viewBox="0 0 25 25" fill="none" xmlns="http://www.w3.org/2000/svg">
<path d="M9.42973 22.9647H15.4637C20.4919 22.9647 22.5033 20.9534 22.5033 15.9251V9.89115C22.5033 4.86287 20.4919 2.85156 15.4637 2.85156H9.42973C4.40145 2.85156 2.39014 4.86287 2.39014 9.89115V15.9251C2.39014 20.9534 4.40145 22.9647 9.42973 22.9647Z" stroke="#8B8C91" stroke-width="1.50848" stroke-linecap="round" stroke-linejoin="round"/>
<path d="M15.9665 19.4451C17.0727 19.4451 17.9778 18.54 17.9778 17.4338V8.38289C17.9778 7.27667 17.0727 6.37158 15.9665 6.37158C14.8603 6.37158 13.9552 7.27667 13.9552 8.38289V17.4338C13.9552 18.54 14.8502 19.4451 15.9665 19.4451Z" stroke="#8B8C91" stroke-width="1.50848" stroke-linecap="round" stroke-linejoin="round"/>
<path d="M8.92684 19.445C10.0331 19.445 10.9382 18.5399 10.9382 17.4337V13.9139C10.9382 12.8077 10.0331 11.9026 8.92684 11.9026C7.82062 11.9026 6.91553 12.8077 6.91553 13.9139V17.4337C6.91553 18.5399 7.81056 19.445 8.92684 19.445Z" stroke="#8B8C91" stroke-width="1.50848" stroke-linecap="round" stroke-linejoin="round"/>
</svg>
