<svg width="23" height="24" viewBox="0 0 23 24" fill="none" xmlns="http://www.w3.org/2000/svg">
<path d="M8.31043 21.1545H13.8507C18.4676 21.1545 20.3143 19.3078 20.3143 14.6909V9.15064C20.3143 4.53376 18.4676 2.68701 13.8507 2.68701H8.31043C3.69355 2.68701 1.8468 4.53376 1.8468 9.15064V14.6909C1.8468 19.3078 3.69355 21.1545 8.31043 21.1545Z" stroke="#8B8C91" stroke-width="1.38506" stroke-linecap="round" stroke-linejoin="round"/>
<path d="M14.3123 17.9228C15.328 17.9228 16.1591 17.0918 16.1591 16.0761V7.7657C16.1591 6.74998 15.328 5.91895 14.3123 5.91895C13.2966 5.91895 12.4656 6.74998 12.4656 7.7657V16.0761C12.4656 17.0918 13.2874 17.9228 14.3123 17.9228Z" stroke="#8B8C91" stroke-width="1.38506" stroke-linecap="round" stroke-linejoin="round"/>
<path d="M7.8487 17.9229C8.86442 17.9229 9.69545 17.0918 9.69545 16.0761V12.8443C9.69545 11.8286 8.86442 10.9976 7.8487 10.9976C6.83299 10.9976 6.00195 11.8286 6.00195 12.8443V16.0761C6.00195 17.0918 6.82376 17.9229 7.8487 17.9229Z" stroke="#8B8C91" stroke-width="1.38506" stroke-linecap="round" stroke-linejoin="round"/>
</svg>
