<svg width="27" height="27" viewBox="0 0 27 27" fill="none" xmlns="http://www.w3.org/2000/svg">
<path d="M3.26733 10.1169V16.4011C3.26733 18.71 3.26733 18.71 5.44555 20.1803L11.4357 23.6437C12.3396 24.1664 13.8099 24.1664 14.703 23.6437L20.6931 20.1803C22.8713 18.71 22.8713 18.71 22.8713 16.412V10.1169C22.8713 7.81891 22.8713 7.81891 20.6931 6.34861L14.703 2.88524C13.8099 2.36247 12.3396 2.36247 11.4357 2.88524L5.44555 6.34861C3.26733 7.81891 3.26733 7.81891 3.26733 10.1169Z" stroke="#8B8C91" stroke-width="1.63366" stroke-linecap="round" stroke-linejoin="round"/>
<path d="M13.0693 16.532C14.8738 16.532 16.3367 15.0691 16.3367 13.2646C16.3367 11.4601 14.8738 9.99731 13.0693 9.99731C11.2648 9.99731 9.802 11.4601 9.802 13.2646C9.802 15.0691 11.2648 16.532 13.0693 16.532Z" stroke="#8B8C91" stroke-width="1.63366" stroke-linecap="round" stroke-linejoin="round"/>
</svg>
