<svg width="21" height="21" viewBox="0 0 21 21" fill="none" xmlns="http://www.w3.org/2000/svg">
<path d="M18.5319 9.39521V3.59739C18.5319 2.31846 17.9863 1.80688 16.6306 1.80688H13.186C11.8303 1.80688 11.2847 2.31846 11.2847 3.59739V9.39521C11.2847 10.6741 11.8303 11.1857 13.186 11.1857H16.6306C17.9863 11.1857 18.5319 10.6741 18.5319 9.39521Z" fill="white"/>
<path d="M9.57943 11.2709V17.0687C9.57943 18.3476 9.03376 18.8592 7.67809 18.8592H4.2335C2.87783 18.8592 2.33215 18.3476 2.33215 17.0687V11.2709C2.33215 9.99192 2.87783 9.48035 4.2335 9.48035H7.67809C9.03376 9.48035 9.57943 9.99192 9.57943 11.2709Z" fill="white"/>
<path d="M18.5319 17.0687V14.6814C18.5319 13.4024 17.9863 12.8909 16.6306 12.8909H13.186C11.8303 12.8909 11.2847 13.4024 11.2847 14.6814V17.0687C11.2847 18.3476 11.8303 18.8592 13.186 18.8592H16.6306C17.9863 18.8592 18.5319 18.3476 18.5319 17.0687Z" fill="white"/>
<path d="M9.57943 5.98473V3.59739C9.57943 2.31846 9.03376 1.80688 7.67809 1.80688H4.2335C2.87783 1.80688 2.33215 2.31846 2.33215 3.59739V5.98473C2.33215 7.26366 2.87783 7.77523 4.2335 7.77523H7.67809C9.03376 7.77523 9.57943 7.26366 9.57943 5.98473Z" fill="white"/>
</svg>
