<svg width="23" height="23" viewBox="0 0 23 23" fill="none" xmlns="http://www.w3.org/2000/svg">
<path d="M20.1298 10.1663V3.88733C20.1298 2.50227 19.5389 1.94824 18.0707 1.94824H14.3403C12.8721 1.94824 12.2811 2.50227 12.2811 3.88733V10.1663C12.2811 11.5513 12.8721 12.1054 14.3403 12.1054H18.0707C19.5389 12.1054 20.1298 11.5513 20.1298 10.1663Z" fill="white"/>
<path d="M10.4344 12.1979V18.4768C10.4344 19.8619 9.84342 20.4159 8.37525 20.4159H4.64482C3.17665 20.4159 2.58569 19.8619 2.58569 18.4768V12.1979C2.58569 10.8128 3.17665 10.2588 4.64482 10.2588H8.37525C9.84342 10.2588 10.4344 10.8128 10.4344 12.1979Z" fill="white"/>
<path d="M20.1298 18.4767V15.8912C20.1298 14.5062 19.5389 13.9521 18.0707 13.9521H14.3403C12.8721 13.9521 12.2811 14.5062 12.2811 15.8912V18.4767C12.2811 19.8617 12.8721 20.4158 14.3403 20.4158H18.0707C19.5389 20.4158 20.1298 19.8617 20.1298 18.4767Z" fill="white"/>
<path d="M10.4344 6.47278V3.88733C10.4344 2.50227 9.84342 1.94824 8.37525 1.94824H4.64482C3.17665 1.94824 2.58569 2.50227 2.58569 3.88733V6.47278C2.58569 7.85784 3.17665 8.41187 4.64482 8.41187H8.37525C9.84342 8.41187 10.4344 7.85784 10.4344 6.47278Z" fill="white"/>
</svg>
