<svg width="27" height="27" viewBox="0 0 27 27" fill="none" xmlns="http://www.w3.org/2000/svg">
<path d="M3.26733 10.1172V16.4013C3.26733 18.7102 3.26733 18.7102 5.44555 20.1805L11.4357 23.6439C12.3396 24.1667 13.8099 24.1667 14.703 23.6439L20.6931 20.1805C22.8713 18.7102 22.8713 18.7102 22.8713 16.4122V10.1172C22.8713 7.81915 22.8713 7.81915 20.6931 6.34885L14.703 2.88549C13.8099 2.36272 12.3396 2.36272 11.4357 2.88549L5.44555 6.34885C3.26733 7.81915 3.26733 7.81915 3.26733 10.1172Z" stroke="#8B8C91" stroke-width="1.63366" stroke-linecap="round" stroke-linejoin="round"/>
<path d="M13.0693 16.5321C14.8738 16.5321 16.3367 15.0693 16.3367 13.2648C16.3367 11.4603 14.8738 9.99744 13.0693 9.99744C11.2648 9.99744 9.802 11.4603 9.802 13.2648C9.802 15.0693 11.2648 16.5321 13.0693 16.5321Z" stroke="#8B8C91" stroke-width="1.63366" stroke-linecap="round" stroke-linejoin="round"/>
</svg>
