<svg width="27" height="27" viewBox="0 0 27 27" fill="none" xmlns="http://www.w3.org/2000/svg">
<path d="M3.99011 10.238V16.5222C3.99011 18.8311 3.99011 18.8311 6.16833 20.3014L12.1584 23.7648C13.0624 24.2875 14.5327 24.2875 15.4258 23.7648L21.4159 20.3014C23.5941 18.8311 23.5941 18.8311 23.5941 16.5331V10.238C23.5941 7.94 23.5941 7.94 21.4159 6.4697L15.4258 3.00634C14.5327 2.48356 13.0624 2.48356 12.1584 3.00634L6.16833 6.4697C3.99011 7.94 3.99011 7.94 3.99011 10.238Z" stroke="#8B8C91" stroke-width="1.63366" stroke-linecap="round" stroke-linejoin="round"/>
<path d="M13.7921 16.6528C15.5966 16.6528 17.0594 15.19 17.0594 13.3855C17.0594 11.581 15.5966 10.1182 13.7921 10.1182C11.9876 10.1182 10.5248 11.581 10.5248 13.3855C10.5248 15.19 11.9876 16.6528 13.7921 16.6528Z" stroke="#8B8C91" stroke-width="1.63366" stroke-linecap="round" stroke-linejoin="round"/>
</svg>
