<svg width="22" height="21" viewBox="0 0 22 21" fill="none" xmlns="http://www.w3.org/2000/svg">
<path d="M19.2547 9.51558V3.71775C19.2547 2.43882 18.709 1.92725 17.3534 1.92725H13.9088C12.5531 1.92725 12.0074 2.43882 12.0074 3.71775V9.51558C12.0074 10.7945 12.5531 11.3061 13.9088 11.3061H17.3534C18.709 11.3061 19.2547 10.7945 19.2547 9.51558Z" fill="white"/>
<path d="M10.3022 11.3916V17.1894C10.3022 18.4683 9.75654 18.9799 8.40087 18.9799H4.95628C3.60061 18.9799 3.05493 18.4683 3.05493 17.1894V11.3916C3.05493 10.1126 3.60061 9.60107 4.95628 9.60107H8.40087C9.75654 9.60107 10.3022 10.1126 10.3022 11.3916Z" fill="white"/>
<path d="M19.2547 17.1893V14.802C19.2547 13.523 18.709 13.0115 17.3534 13.0115H13.9088C12.5531 13.0115 12.0074 13.523 12.0074 14.802V17.1893C12.0074 18.4683 12.5531 18.9798 13.9088 18.9798H17.3534C18.709 18.9798 19.2547 18.4683 19.2547 17.1893Z" fill="white"/>
<path d="M10.3022 6.10509V3.71775C10.3022 2.43882 9.75654 1.92725 8.40087 1.92725H4.95628C3.60061 1.92725 3.05493 2.43882 3.05493 3.71775V6.10509C3.05493 7.38402 3.60061 7.89559 4.95628 7.89559H8.40087C9.75654 7.89559 10.3022 7.38402 10.3022 6.10509Z" fill="white"/>
</svg>
