<svg width="25" height="25" viewBox="0 0 25 25" fill="none" xmlns="http://www.w3.org/2000/svg">
<path d="M9.42973 22.9648H15.4637C20.4919 22.9648 22.5033 20.9535 22.5033 15.9252V9.89128C22.5033 4.863 20.4919 2.85168 15.4637 2.85168H9.42973C4.40145 2.85168 2.39014 4.863 2.39014 9.89128V15.9252C2.39014 20.9535 4.40145 22.9648 9.42973 22.9648Z" stroke="#8B8C91" stroke-width="1.50848" stroke-linecap="round" stroke-linejoin="round"/>
<path d="M15.9665 19.445C17.0727 19.445 17.9778 18.5399 17.9778 17.4337V8.38277C17.9778 7.27655 17.0727 6.37146 15.9665 6.37146C14.8603 6.37146 13.9552 7.27655 13.9552 8.38277V17.4337C13.9552 18.5399 14.8502 19.445 15.9665 19.445Z" stroke="#8B8C91" stroke-width="1.50848" stroke-linecap="round" stroke-linejoin="round"/>
<path d="M8.92684 19.4451C10.0331 19.4451 10.9382 18.54 10.9382 17.4338V13.914C10.9382 12.8078 10.0331 11.9027 8.92684 11.9027C7.82062 11.9027 6.91553 12.8078 6.91553 13.914V17.4338C6.91553 18.54 7.81056 19.4451 8.92684 19.4451Z" stroke="#8B8C91" stroke-width="1.50848" stroke-linecap="round" stroke-linejoin="round"/>
</svg>
